<?xml version="1.0" standalone="no"?>
<!DOCTYPE svg PUBLIC "-//W3C//DTD SVG 20010904//EN"
 "http://www.w3.org/TR/2001/REC-SVG-20010904/DTD/svg10.dtd">
<svg version="1.0" xmlns="http://www.w3.org/2000/svg"
 width="700.000000pt" height="700.000000pt" viewBox="0 0 700.000000 700.000000"
 preserveAspectRatio="xMidYMid meet">
<metadata>
Created by potrace 1.14, written by Peter Selinger 2001-2017
</metadata>
<g transform="translate(0.000000,700.000000) scale(0.100000,-0.100000)"
fill="#000000" stroke="none">
<path d="M1457 6173 c-6 -12 -1 -302 7 -366 14 -119 68 -254 149 -375 23 -34
96 -113 161 -175 241 -226 281 -270 312 -332 28 -58 29 -66 32 -232 l4 -171
247 1 246 2 0 150 c1 247 -18 340 -99 503 -46 93 -138 199 -296 342 -155 139
-201 190 -234 260 -29 63 -30 71 -32 215 -2 83 -3 158 -3 168 -1 16 -20 17
-245 17 -135 0 -247 -3 -249 -7z"/>
<path d="M2618 6173 c-6 -13 -1 -295 6 -358 25 -210 130 -396 326 -575 203
-186 269 -255 294 -311 31 -68 35 -102 36 -270 l0 -137 248 2 247 1 0 160 c-1
247 -16 327 -90 475 -60 119 -128 199 -305 360 -148 134 -199 190 -232 258
-31 62 -32 67 -34 225 -1 89 -3 165 -3 170 -1 4 -111 7 -245 7 -135 0 -246 -3
-248 -7z"/>
<path d="M795 2968 c1 -673 5 -1239 9 -1258 33 -163 100 -320 184 -430 58 -77
150 -169 207 -208 22 -15 42 -30 45 -34 13 -16 185 -98 248 -117 154 -47 172
-47 1317 -46 803 1 1096 5 1143 14 400 78 708 370 798 760 9 36 18 99 21 141
3 41 6 76 7 77 0 1 66 3 146 4 79 1 165 6 190 11 25 5 59 11 75 14 49 8 206
63 265 92 299 148 533 438 614 763 41 164 41 396 1 554 -54 213 -149 379 -310
541 -138 140 -269 222 -450 283 -95 32 -111 35 -215 51 -40 6 -865 10 -2181
10 l-2116 0 2 -1222z m3168 721 c95 -20 156 -21 214 -4 l22 7 -2 -233 c-1
-154 -6 -234 -13 -236 -6 -2 -23 38 -38 89 -80 268 -208 389 -397 376 -86 -7
-152 -39 -196 -96 -41 -54 -56 -108 -55 -197 2 -164 66 -255 327 -465 314
-253 417 -406 431 -645 18 -291 -141 -495 -433 -556 -107 -22 -260 -20 -413 5
-117 20 -164 22 -233 12 l-46 -7 -1 240 c0 203 2 241 14 241 12 0 30 -43 27
-65 -1 -8 39 -114 53 -138 59 -110 146 -196 243 -243 88 -43 193 -53 271 -27
123 43 181 180 146 350 -27 131 -99 221 -349 433 -82 70 -169 147 -191 171
-142 150 -205 293 -209 468 -4 198 68 337 229 443 66 43 190 86 275 95 31 3
57 6 58 7 11 9 186 -7 266 -25z m-1843 -23 c212 -18 376 -78 475 -174 132
-128 166 -326 86 -498 -55 -117 -178 -210 -351 -264 l-85 -27 55 -7 c202 -25
378 -133 449 -274 34 -69 43 -106 46 -197 6 -198 -95 -356 -281 -436 -44 -18
-155 -49 -234 -65 -63 -12 -940 -17 -940 -5 0 7 27 11 73 11 l72 0 0 958 0
957 -65 3 c-76 3 -105 11 -78 21 22 8 679 6 778 -3z m2915 -149 c77 -18 109
-32 163 -66 156 -101 236 -251 234 -437 -2 -164 -101 -330 -245 -413 -87 -50
-144 -63 -284 -67 l-133 -4 0 494 c0 271 3 496 7 499 7 7 224 2 258 -6z"/>
<path d="M1946 3197 c1 -248 2 -460 3 -470 1 -16 9 -18 62 -16 197 7 289 168
284 495 -3 196 -31 290 -107 367 -49 48 -122 77 -197 77 l-46 0 1 -453z"/>
<path d="M1949 2684 c-1 -5 -2 -221 -3 -481 l-1 -472 65 0 c183 0 273 82 318
289 19 87 23 254 8 335 -27 139 -109 265 -202 310 -41 20 -183 34 -185 19z"/>
</g>
</svg>
