<svg width="200" height="299" viewBox="0 0 200 299" fill="none" xmlns="http://www.w3.org/2000/svg">
<path d="M135.979 61.7197C133.981 61.092 131.815 60.9217 129.711 61.3326C128.032 61.6606 126.374 61.9524 124.722 62.227C123.483 61.9535 122.217 61.748 120.958 61.5823C107.035 59.7584 92.9242 60.0364 79.1248 62.3303C65.861 60.655 52.604 58.9355 39.3437 57.2398C32.2998 56.3397 26.0651 65.2564 28.3987 71.6079C29.4883 74.5714 30.8855 77.1592 32.4802 79.5496C32.2918 80.2941 32.1443 81.058 32.0489 81.8367C30.8265 91.8554 34.9114 100.61 38.279 109.745C38.3301 109.885 38.4141 110.113 38.5174 110.408C33.4541 118.714 28.3896 127.02 23.3264 135.328C18.5672 143.132 24.8643 151.801 33.1261 152.406C48.4374 153.528 63.9076 152.072 78.7695 148.255C94.1591 147.907 111.137 140.477 123.334 132.076C137.755 122.142 148.842 106.698 147.915 88.5082C147.82 86.6559 147.366 85.0419 146.653 83.6595C147.433 80.9672 148.177 78.2625 148.846 75.5316C151.103 66.3278 143.283 60.5302 135.979 61.7197Z" fill="#F87171"/>
<path d="M170.999 287.649C168.951 289.437 166.322 289.347 163.803 289.889C158.958 290.933 154.104 291.568 149.235 292.444C144.184 293.353 139.215 293.665 134.111 294.201C128.971 294.741 123.986 295.458 118.803 295.344C108.256 295.11 97.7527 295.925 87.1835 295.686C82.0895 295.57 76.9184 294.824 71.8267 294.454C66.6556 294.079 61.2178 294.047 56.1147 293.155C50.8233 292.228 45.3696 291.557 40.2245 290.046C37.8626 289.352 35.6448 288.587 33.3532 287.684C32.5984 287.387 31.8232 287.123 31.1002 286.749C30.7268 286.557 28.5078 284.588 28.6372 284.546C28.8461 284.477 28.9913 284.341 29.0787 284.176C30.7529 284.43 32.427 284.67 34.0944 284.933C37.5959 285.484 41.1507 285.742 44.6727 286.233C46.1834 286.443 47.7304 286.57 49.232 286.83C51.0435 287.145 52.7551 287.763 54.6041 288.024C57.9262 288.493 61.2303 288.771 64.5865 288.781C68.5227 288.796 72.4306 288.459 76.3316 288.99C79.4552 289.415 82.4698 289.6 85.6103 289.747C89.2867 289.919 92.6871 290.65 96.3827 290.565C103.295 290.406 110.367 291.3 117.237 290.022C117.36 290.034 117.479 290.058 117.603 290.067C121.226 290.318 124.951 290.007 128.584 289.972C135.995 289.902 143.619 290.335 150.928 288.914C152.841 288.542 154.745 288.15 156.649 287.76C158.711 287.787 160.775 287.753 162.753 287.414C166.287 286.809 169.689 285.684 173.2 284.959C172.569 285.922 171.908 286.856 170.999 287.649ZM9.22281 154.885C10.4781 153.289 11.2454 151.496 12.1137 149.652C13.2158 147.31 14.613 145.092 15.9932 142.91C17.3858 140.709 18.4834 138.352 19.9385 136.183C21.4651 133.908 23.5308 131.976 24.8417 129.566C26.0676 127.312 26.786 124.775 27.8234 122.43C28.938 119.912 30.3726 117.584 31.6075 115.129C32.8038 112.748 33.9491 110.322 35.05 107.894C35.6255 106.623 36.462 103.33 38.0624 103.063L38.0964 103.049C38.1009 103.291 38.2644 103.538 38.5765 103.545C39.648 103.571 40.7183 103.624 41.7863 103.688C43.3674 103.993 44.9803 104.216 46.5511 104.43C51.2683 105.07 55.915 106.521 60.6786 106.721C65.6795 106.931 70.7008 106.568 75.6744 106.188C81.0646 105.778 86.6568 106.221 92.064 106.22C96.9991 106.219 101.767 104.943 106.636 104.904C111.422 104.864 116.135 104.276 120.873 103.639C130.12 103.537 139.368 103.447 148.622 103.456C148.777 104.927 149.87 105.952 151.21 106.754C153.215 110.158 155.073 113.657 157.3 116.932C160.307 121.356 163.111 125.921 166.319 130.203C169.496 134.443 173.071 138.456 175.924 142.927C178.088 146.317 180.116 149.899 182.782 152.944C182.394 153.018 182.006 153.084 181.609 153.109C180.342 153.189 179.038 153.088 177.768 153.076C174.913 153.047 172.18 153.66 169.318 153.601C166.661 153.546 164.24 153.731 161.638 154.228C158.74 154.781 155.692 154.831 152.746 155.067C146.875 155.538 140.837 155.156 134.949 155.157C132.313 155.157 129.651 155.071 127.033 155.441C123.919 155.88 120.897 156.449 117.748 156.647C112.132 157 106.539 157.38 100.901 157.626C94.9901 157.884 89.0528 157.742 83.1371 157.742C70.9006 157.744 58.4654 158.469 46.3094 156.818C40.0044 155.962 33.6778 156.413 27.3342 156.315C24.1687 156.265 21.0054 156.002 17.8421 155.982C14.865 155.962 11.9321 156.302 9.22281 154.885ZM32.7482 90.91C30.5599 86.5289 28.2978 82.2079 26.4058 77.6871C24.6737 73.5477 22.6455 69.6796 20.2937 65.8557C17.7922 61.7856 15.8252 57.5372 13.5143 53.3831C13.1931 52.8054 12.3452 51.6726 11.6779 50.5308C16.555 50.6204 21.439 50.5535 26.3116 50.7964C31.6768 51.062 36.9886 51.8883 42.3675 51.9507C47.8609 52.0154 53.2205 52.533 58.6697 53.2015C63.3618 53.7758 68.1833 54.7167 72.9254 54.4239C78.0262 54.1084 83.1156 54.0016 88.2243 53.7848C93.468 53.5612 98.6698 52.9574 103.903 52.6272C114.268 51.9723 124.599 50.6216 134.977 49.8702C140.72 49.4548 146.474 49.322 152.227 49.5672C155.248 49.6966 158.267 49.8838 161.292 49.9315C162.462 49.9508 163.666 49.8623 164.869 49.8055L164.838 49.8407C164.296 50.7328 164.099 51.6669 163.623 52.584C163.178 53.4421 162.46 54.1151 162.04 54.9857C161.176 56.7756 161.292 58.9355 160.929 60.8548C160.062 65.4221 158.612 70.1098 157.23 74.5443C155.854 78.9595 154.741 83.4439 153.307 87.8432C151.902 92.162 150.262 96.4341 149.012 100.806C147.487 100.415 145.959 99.9288 144.481 99.6337C142.321 99.2024 140.161 99.1286 137.964 99.1377C133.163 99.1559 128.653 99.8017 123.931 100.56C120.384 101.129 116.685 101.735 113.027 102.056C106.786 102.144 100.546 102.226 94.3023 102.268C84.8249 102.332 75.3623 102.821 65.8793 102.852C61.8341 102.864 57.7889 102.903 53.7437 102.945C52.334 102.714 50.9153 102.496 49.459 102.34C47.1186 102.089 44.7771 101.872 42.4367 101.622C41.4186 101.513 40.2938 101.56 39.2961 101.245C38.6435 101.041 38.0998 100.717 37.5357 100.424C37.1941 99.4124 36.5982 98.4863 36.092 97.4954C34.9717 95.3026 33.8481 93.112 32.7482 90.91ZM51.2024 48.5445C50.4136 47.1711 50.0844 45.4516 49.3285 44.0158C48.2843 42.0261 47.4058 40.0149 46.5364 37.9469C45.2572 34.9073 43.4321 32.425 41.75 29.617C39.5629 25.9634 37.8819 22.0453 36.1658 18.1591C34.3384 14.0231 32.2897 10.0426 31.3749 5.59903C31.864 5.72162 32.4645 5.84644 33.2056 5.97128C35.3678 6.54901 37.5913 6.71133 39.8262 6.74652C42.01 6.93607 44.6318 7.12329 47.8099 7.30603C56.1522 7.78387 66.4774 8.10513 77.7175 8.24814C79.4506 8.35596 81.1815 8.45923 82.9158 8.55344C84.5684 8.64426 85.7863 8.94046 87.154 8.32529C88.4819 8.33096 89.8144 8.33438 91.1583 8.33438C107.53 8.33438 122.924 7.9689 134.506 7.30603C140.099 6.98483 143.998 6.64774 146.729 6.31064L146.85 6.32315C146.996 6.39352 147.163 6.43777 147.357 6.43777C147.858 6.43436 148.357 6.43777 148.858 6.44687C149.018 6.44913 149.151 6.41394 149.273 6.36853L149.29 6.36966C149.771 6.38327 150.055 6.11771 150.176 5.77267C150.401 5.72614 150.61 5.67957 150.803 5.63416C148.363 12.8188 144.59 19.655 141.658 26.6183C138.763 33.4954 136.714 40.5779 134.221 47.5673C134.174 47.6967 134.154 47.8181 134.146 47.935C130.96 48.212 127.781 48.5434 124.587 48.7806C121.909 48.9792 119.223 49.0428 116.546 49.2811C113.847 49.5218 111.2 50.1415 108.504 50.3708C98.1273 51.2515 87.7487 51.5285 77.352 52.0188C74.9333 52.1323 72.5372 52.5193 70.1095 52.4467C67.4138 52.3661 64.6977 51.9041 62.0214 51.5875C58.3155 51.1482 54.6097 50.6216 50.888 50.3015C51.3556 49.8997 51.5963 49.2289 51.2024 48.5445ZM32.0718 3.88516C31.931 4.02704 31.8368 4.19727 31.8039 4.3891C31.4872 4.31644 31.2092 4.24152 30.998 4.16772C31.267 4.07355 31.6314 3.97937 32.0718 3.88516ZM52.9197 2.09525C52.3068 2.16333 51.6939 2.23257 51.081 2.30069C50.3659 2.31998 49.6588 2.37555 48.9619 2.4743C47.9779 2.46408 46.9949 2.47092 46.012 2.46411C48.1311 2.33246 50.4374 2.20874 52.9197 2.09525ZM124.054 6.27887C125.646 6.20963 127.235 6.13245 128.826 6.06433C129.677 6.02689 130.426 6.05304 131.136 5.96338C131.634 6.01672 132.133 6.04166 132.633 6.08026C129.309 6.25616 125.62 6.41281 121.605 6.54562C122.423 6.48093 123.241 6.39691 124.054 6.27887ZM102.205 6.7692C106.043 6.80209 109.9 6.63757 113.733 6.61374C114.797 6.65573 115.862 6.67728 116.924 6.68521C112.25 6.81122 107.21 6.9054 101.864 6.95987C101.981 6.90085 102.096 6.8407 102.205 6.7692ZM64.7863 1.70935C64.6603 1.69458 64.5343 1.6889 64.4083 1.67642C66.583 1.61511 68.8348 1.55951 71.1673 1.51297C71.1219 1.65826 71.0947 1.81036 71.1026 1.96698L71.0492 2.05887L70.9902 2.06232C70.7825 1.8671 70.5022 1.72974 70.1321 1.72519C68.4796 1.70135 66.8281 1.75128 65.1778 1.83188C65.0655 1.77173 64.9383 1.72751 64.7863 1.70935ZM160.199 98.2842L159.478 100.45C158.99 100.622 158.487 100.74 157.97 100.802C157.322 100.902 156.638 100.931 155.983 100.913C155.232 100.89 154.503 100.743 153.772 100.605C156.024 98.383 159.118 96.0096 160.199 98.2842ZM17.0624 162.632C17.2405 161.987 17.4131 161.341 17.5777 160.693C17.8784 159.569 18.1599 158.528 18.4221 157.564C19.4708 157.578 20.5037 157.595 21.4912 157.664C27.6271 158.091 33.7414 158.045 39.8863 158.154C45.7487 158.257 51.5634 159.514 57.445 159.718C63.6365 159.932 69.8348 159.775 76.0286 159.776C88.0484 159.777 100.054 159.758 112.057 159.284C117.856 159.056 123.581 157.608 129.35 157.269C135.432 156.911 141.605 157.207 147.696 157.205C150.945 157.204 154.103 156.835 157.336 156.695C160.474 156.559 163.513 155.681 166.638 155.615C168.175 155.583 169.71 155.709 171.247 155.688C172.82 155.666 174.275 155.256 175.834 155.126C176.529 155.067 177.238 155.069 177.948 155.086C177.988 155.32 178.036 155.558 178.07 155.791C178.361 157.854 178.653 159.914 179.007 161.97C179.661 165.766 180.232 169.579 181.006 173.355C182.596 181.115 184.522 188.778 186.368 196.482C187.364 200.642 187.777 204.91 188.565 209.109C189.362 213.36 190.28 217.604 191.347 221.794C192.493 226.292 193.54 230.677 194.07 235.296C194.483 238.887 194.867 242.499 195.228 246.086C195.415 247.944 195.497 249.435 195.992 251.258C196.539 253.274 196.854 255.573 197.047 257.658C197.391 261.364 197.775 266.329 196.052 269.882C195.431 270.692 194.807 271.499 194.215 272.331C193.351 273.548 192.51 274.664 191.378 275.645C191.218 275.783 191.154 275.952 191.143 276.123C190.631 276.639 190.068 277.131 189.458 277.591C188.01 278.301 186.365 278.962 184.504 279.58C184.075 279.658 183.648 279.73 183.231 279.78C182.92 279.818 182.704 279.975 182.569 280.178C178.326 281.423 173.102 282.479 166.702 283.382C166.344 283.369 165.97 283.388 165.582 283.445L165.454 283.425C162.478 283.554 159.411 283.811 156.459 284.223C156.147 284.266 155.944 284.447 155.821 284.667C150.91 285.155 145.494 285.591 139.501 285.984C136.841 286.158 134.226 286.311 131.633 286.452C128.675 286.476 125.716 286.51 122.77 286.724C122.253 286.761 121.754 286.845 121.257 286.944C105.741 287.558 91.5533 287.577 78.7866 287.135C77.1999 286.929 75.6154 286.709 74.0026 286.594C72.0299 286.455 70.0119 286.549 68.0029 286.635C62.346 286.301 57.0228 285.871 52.0412 285.358C49.7485 284.963 47.4523 284.552 45.1153 284.227C39.7842 283.484 34.4791 282.806 29.1741 281.99C23.1596 280.766 18.0895 279.39 14.0092 277.916C13.0943 277.237 12.2181 276.512 11.2783 275.837C9.50544 274.563 7.77794 273.634 6.38641 271.873C3.66692 268.434 3.20383 263.295 2.69421 259.075C2.46267 257.163 1.95645 255.386 1.98937 253.437C2.03023 251.004 2.0098 248.565 2.10174 246.133C2.28447 241.264 3.32302 236.39 3.95749 231.559C4.50003 227.435 4.72928 223.374 5.06978 219.233C5.26047 216.908 5.25821 214.714 5.82231 212.429C6.35236 210.285 6.73032 208.108 7.26605 205.967C8.39312 201.461 9.37491 196.944 10.7664 192.504C12.1568 188.067 12.553 183.43 13.3792 178.862C13.9013 175.983 14.4405 173.146 15.0693 170.322C15.7798 167.523 16.4506 164.948 17.0624 162.632ZM199.999 264.515C199.997 264.366 199.947 264.257 199.88 264.166C199.953 262.431 199.87 260.529 199.597 258.369C199.154 254.86 198.067 248.494 196.615 240.552C196.253 236.822 195.988 233.067 195.359 229.368C194.669 225.301 193.281 221.306 192.361 217.28C191.27 212.518 190.364 207.732 189.618 202.904C188.838 197.849 187.639 192.873 186.404 187.908C183.526 173.519 180.987 161.047 179.779 155.14C180.15 155.153 180.52 155.163 180.887 155.164C182.197 155.168 183.338 154.839 184.597 154.685C185.133 154.85 185.81 154.587 185.914 153.984C185.975 153.82 186.002 153.65 185.989 153.478L186.01 153.318C186.121 152.509 185.391 152.021 184.778 152.083C181.733 148.788 179.646 144.762 177.155 141.066C174.181 136.657 170.629 132.646 167.458 128.379C164.457 124.336 161.82 120.038 158.954 115.898C157.28 113.479 155.846 110.864 154.35 108.298C154.69 108.457 155.007 108.613 155.291 108.769C159.771 111.234 163.823 114.945 167.648 118.323C169.845 120.263 172.082 122.191 173.264 124.939C174.116 126.924 174.292 129.197 175.234 131.129C176.524 133.776 179.367 134.865 182.116 135.329C186.267 136.029 188.775 133.732 192.642 132.902C194.122 132.584 193.414 130.343 191.941 130.655C187.505 131.592 183.716 134.89 179.105 131.875C176.801 130.369 176.737 127.476 175.862 125.089C175.247 123.408 174.446 121.866 173.296 120.485C169.955 116.477 165.322 113.268 161.273 110.027C159.412 108.538 157.528 107.31 155.408 106.212C154.501 105.741 152.862 105.295 152.126 104.564L151.872 104.302C151.786 104.176 151.697 104.053 151.61 103.928C151.825 103.955 152.038 103.999 152.254 104.016C152.588 104.043 152.829 103.941 153.022 103.792C156.643 104.354 160.164 105.539 163.839 105.708C167.915 105.896 172.129 104.569 176.079 103.724C181.462 102.572 186.082 101.421 190.898 104.784C192.734 106.067 194.479 107.452 195.968 109.132C196.73 109.992 197.053 110.53 198.204 110.856C199.61 111.255 200.122 109.035 198.714 108.643C197.518 108.309 195.723 105.653 194.769 104.888C193.394 103.784 191.928 102.685 190.402 101.8C187.023 99.8448 183.485 100.029 179.744 100.763C174.91 101.712 169.848 103.596 164.91 103.762C162.025 103.858 159.181 103.201 156.332 102.615C159.676 102.467 163.639 101.461 161.706 97.7712C159.413 93.3957 154.659 97.3751 151.893 100.383C151.56 100.378 151.242 100.41 150.935 100.461C153.737 92.2879 156.224 84.0398 158.882 75.8246C160.321 71.381 161.72 66.7376 162.728 62.1806C163.16 60.2204 163 57.7801 163.837 55.9584C164.236 55.0856 164.966 54.4012 165.424 53.559C165.784 52.8984 165.99 52.1868 166.291 51.5058L166.318 51.4717C166.427 51.2538 166.536 51.037 166.645 50.8191C166.849 50.4116 166.769 50.045 166.565 49.7726C166.758 49.7737 166.954 49.7669 167.146 49.7737C167.275 49.4173 167.413 49.0644 167.575 48.7159C167.689 48.4719 167.848 48.2642 168.025 48.0735L168.087 47.7841C166.779 47.683 165.469 47.7738 164.135 47.8408C161.648 47.9668 159.152 47.8397 156.667 47.7284C151.177 47.4833 145.723 47.2915 140.228 47.5173C139.183 47.5605 138.142 47.6308 137.101 47.7035C139.688 40.2498 141.859 32.7076 144.851 25.3505C147.626 18.5234 151.047 11.7417 152.987 4.60019L153.062 4.33344C153.122 4.10757 153.194 3.88629 153.251 3.66043C153.492 2.7002 152.236 2.3075 151.725 2.96011C149.849 2.33359 145.344 1.64917 134.506 1.02945C122.925 0.365448 107.531 0 91.1583 0C74.7846 0 59.3893 0.365448 47.8099 1.02945C29.2478 2.0918 29.2478 3.34146 29.2478 4.16772C29.2478 4.37997 29.2501 4.61948 29.5634 4.87714L29.56 4.90439C29.8074 9.43536 31.6813 13.4431 33.4009 17.5802C34.991 21.4029 36.546 25.2177 38.4426 28.9019C40.3721 32.6532 42.8181 35.8925 44.4139 39.8344C45.0461 41.3939 45.6896 42.9409 46.4387 44.4482C47.3434 46.2711 47.8541 48.2766 48.8427 50.02L48.9517 50.1744C48.2128 50.1279 47.4728 50.0677 46.7316 50.0438C40.7092 49.8509 34.7561 49.5581 28.7405 49.1892C22.5524 48.8101 16.3586 49.2005 10.1706 49.3958C9.73244 49.4094 9.58487 49.8112 9.6961 50.1267C9.51677 50.1369 9.33971 50.146 9.16151 50.1562C10.0128 52.1051 11.5939 54.0834 12.209 55.2842C13.4995 57.8062 14.5892 60.368 16.042 62.8116C17.5243 65.3041 19.1156 67.7308 20.5775 70.2358C23.4434 75.1504 25.3207 80.536 27.8734 85.6107C29.1537 88.1531 30.4862 90.6694 31.7857 93.2016C32.4645 94.5228 33.1512 95.8382 33.8549 97.1469C34.3747 98.1105 35.2555 99.3329 35.7776 100.526C35.7764 100.652 35.8196 100.773 35.9229 100.87C36.0772 101.281 36.1816 101.685 36.2009 102.068C36.2134 102.341 36.3315 102.534 36.4972 102.657C34.596 104.097 33.4133 107.671 32.5428 109.349C29.8074 114.631 26.7247 119.747 24.5273 125.285C22.4979 130.398 18.4754 134.112 15.8751 138.94C14.5154 141.468 12.9434 143.861 11.5439 146.368C10.1535 148.862 9.28183 151.759 7.38409 153.929C6.63952 154.781 7.62472 155.925 8.47144 155.616C10.8391 157.158 13.7402 157.449 16.631 157.53C16.0726 159.638 15.4347 161.729 14.781 163.82C13.3679 168.35 12.4156 172.844 11.5689 177.506C11.1478 179.829 10.8459 182.206 10.4713 184.565C9.88339 187.072 9.29317 189.656 8.70751 192.293C7.31485 196.795 6.24906 201.37 5.15491 205.95C4.64075 208.101 4.23101 210.27 3.70777 212.42C3.14934 214.712 3.21859 216.876 3.01315 219.201C2.83609 221.213 2.6681 223.213 2.49331 225.212C1.7215 230.442 1.0927 235.562 0.67388 240.423C0.334511 242.812 0.0553177 245.207 0.0133222 247.651C-0.0207282 249.593 0.0121816 251.469 0.0927676 253.337C0.156328 264.619 2.08585 273.083 7.01862 275.946C7.17525 276.106 7.33189 276.263 7.47717 276.42C9.4101 278.507 11.5689 279.607 14.2214 280.658C14.3769 280.719 14.5358 280.767 14.6913 280.827L14.9297 280.977C15.109 281.075 15.2781 281.101 15.4404 281.096C19.2245 282.449 23.171 283.239 27.1549 283.875C26.4886 286.502 28.8438 288.144 30.9776 289.227C34.9354 291.236 39.2008 292.807 43.5592 293.669C54.7573 295.88 66.0087 296.526 77.3735 297.42C83.4379 297.897 89.3604 298.3 95.4498 298.414C101.478 298.528 107.431 297.823 113.439 297.842C119.437 297.862 125.147 297.899 131.115 297.176C136.924 296.475 142.8 296.448 148.526 295.258C151.724 294.593 154.997 294.325 158.216 293.771C161.117 293.273 163.951 292.485 166.856 292.029C169.057 291.683 170.806 291.214 172.551 289.753C174.434 288.178 175.38 286.323 176.708 284.404L176.731 284.361C179.418 284.004 182.134 283.7 184.616 282.582C186.291 281.828 187.838 281.092 189.276 280.198C195.416 277.53 200.068 271.379 199.999 264.515Z" fill="#4D403D"/>
<path d="M168.043 202.187C168.404 202.449 168.756 202.727 169.098 203.016L169.137 203.049C169.45 203.316 169.753 203.601 170.051 203.894C170.38 204.223 170.698 204.567 171.005 204.928L171.067 204.997C171.386 205.374 171.69 205.769 171.979 206.188C172.651 207.162 171.237 208.015 170.461 207.303C170.067 207.158 169.69 206.989 169.319 206.811C168.969 206.641 168.627 206.459 168.292 206.268L168.151 206.192L167.911 206.055C166.727 205.351 165.604 204.55 164.44 203.803C164.149 203.615 163.852 203.431 163.553 203.254C162.731 202.766 161.879 202.324 160.955 201.985C156.835 200.474 152.626 199.835 148.297 199.258C143.463 198.617 138.652 197.715 133.783 197.388C129.12 197.075 124.462 197.637 119.816 197.069L119.742 197.046C118.811 197.187 118.136 195.807 119.108 195.267C122.191 193.554 125.815 194.104 129.176 194.542C134.035 194.643 138.903 195.268 143.743 195.951C144.95 196.059 146.156 196.167 147.362 196.294C152.905 196.876 158.944 197.604 164.068 199.944C165.477 200.55 166.809 201.29 168.043 202.187ZM23.4184 208.192C23.6375 208.222 23.8531 208.277 24.0711 208.322C24.2867 208.366 24.5035 208.402 24.7169 208.46C24.9904 208.535 25.2605 208.628 25.5318 208.722C25.6828 208.774 25.8349 208.821 25.9847 208.879C26.2605 208.984 26.534 209.105 26.8076 209.225C26.9631 209.295 27.1186 209.361 27.2729 209.435C28.8165 210.167 30.2989 211.081 31.7176 211.857C35.8922 214.144 40.43 216.144 45.037 217.558L45.331 217.65L45.4831 217.697C46.3048 217.941 47.1288 218.173 47.9551 218.378C48.6759 218.556 49.4 218.719 50.1275 218.873C50.3931 218.929 50.6587 218.979 50.9255 219.032C51.174 219.081 51.4237 219.127 51.6734 219.175C51.7813 219.194 51.8868 219.215 51.9947 219.235C52.1422 219.262 52.2886 219.293 52.4373 219.319C53.015 219.421 53.595 219.51 54.175 219.599L54.2942 219.618L54.5768 219.664L54.7584 219.69C55.3168 219.772 55.8775 219.842 56.4394 219.911C56.6561 219.938 56.8729 219.968 57.0909 219.993C57.6391 220.055 58.1884 220.112 58.7389 220.165C58.9693 220.188 59.1997 220.212 59.4313 220.232C59.9749 220.281 60.5197 220.325 61.0645 220.365C61.3018 220.383 61.5401 220.401 61.7785 220.418C62.3187 220.455 62.8601 220.487 63.4015 220.516C63.6444 220.53 63.8873 220.542 64.1302 220.555L64.3674 220.567H64.3754C64.8362 220.589 65.2982 220.607 65.7612 220.624C65.9996 220.633 66.2391 220.641 66.4785 220.649C67.0131 220.666 67.5466 220.681 68.0812 220.693L68.2798 220.699C68.4614 220.702 68.6442 220.705 68.8258 220.708C69.3808 220.718 69.9369 220.727 70.4931 220.733C70.7167 220.735 70.9403 220.736 71.1639 220.739C71.4579 220.741 71.7507 220.745 72.0447 220.747H72.0481C72.3239 220.749 72.5985 220.748 72.8732 220.749C73.0696 220.749 73.2659 220.749 73.4623 220.749C74.0741 220.749 74.6847 220.748 75.2953 220.745L75.5666 220.743C76.5722 220.737 77.579 220.731 78.5823 220.723C81.0953 220.702 83.6002 220.682 86.0893 220.692C86.3356 220.693 86.583 220.693 86.8305 220.694C87.8883 220.702 88.945 220.726 90.0028 220.744C92.039 220.778 94.0741 220.823 96.1104 220.88H96.1126C96.6449 220.895 97.1784 220.908 97.7107 220.922C99.3803 220.971 101.05 221.02 102.72 221.067C103.303 221.082 103.887 221.093 104.471 221.107C105.456 221.132 106.44 221.16 107.424 221.178L107.425 221.18C107.849 221.188 108.272 221.195 108.695 221.201C111.016 221.054 113.333 220.877 115.645 220.674C115.922 220.649 116.198 220.623 116.475 220.598C117.24 220.529 118.005 220.456 118.77 220.379C119.333 220.322 119.896 220.263 120.46 220.203C120.882 220.157 121.304 220.11 121.726 220.062C122.522 219.972 123.317 219.879 124.11 219.782L124.338 219.752C127.732 219.329 131.112 218.824 134.475 218.219L134.516 218.211C135.498 218.034 136.479 217.853 137.459 217.659L137.458 217.648C137.682 217.604 137.908 217.564 138.133 217.519L138.121 217.503C139.402 217.242 140.681 216.968 141.958 216.676L141.963 216.698C143.661 216.309 145.353 215.883 147.041 215.435L147.036 215.439C148.19 215.133 149.341 214.81 150.491 214.474C150.984 214.33 151.474 214.177 151.967 214.027C152.856 213.755 153.746 213.476 154.634 213.186C155.074 213.042 155.516 212.898 155.956 212.748C157.265 212.305 158.571 211.848 159.872 211.361C160.096 211.276 160.285 211.295 160.453 211.355C160.695 211.204 160.945 211.063 161.183 210.907C162.229 210.223 163.198 211.9 162.159 212.578C161.449 213.043 160.719 213.487 159.975 213.91C159.678 214.079 159.368 214.233 159.065 214.395L158.848 214.511C156.743 215.632 154.527 216.606 152.239 217.452C152.072 217.513 151.904 217.572 151.736 217.632C150.715 218 149.682 218.343 148.638 218.663C148.49 218.707 148.344 218.756 148.195 218.8C147.111 219.125 146.017 219.421 144.918 219.699C144.605 219.778 144.291 219.853 143.976 219.928C141.707 220.474 139.422 220.937 137.151 221.321C135.958 221.522 134.77 221.7 133.591 221.864C133.374 221.896 133.157 221.926 132.942 221.955C131.763 222.114 130.592 222.262 129.44 222.389C127.744 222.578 126.045 222.725 124.347 222.838C123.944 222.866 123.541 222.875 123.137 222.897C122.967 222.906 122.797 222.912 122.628 222.922C121.496 222.982 120.366 223.049 119.234 223.086C118.841 223.097 118.447 223.096 118.055 223.105C117.88 223.11 117.706 223.111 117.533 223.114C116.392 223.138 115.252 223.166 114.112 223.171C113.805 223.172 113.499 223.165 113.192 223.165C112.898 223.165 112.604 223.161 112.312 223.16C111.187 223.155 110.063 223.155 108.939 223.137C106.962 223.263 104.982 223.372 103.001 223.466C100.872 223.565 98.7402 223.651 96.6063 223.718C95.5213 223.754 94.4339 223.783 93.3477 223.811C90.7769 223.876 88.2038 223.936 85.6308 223.973C83.8896 223.998 82.1258 224.011 80.3518 224.012C79.9455 224.012 79.5346 224.009 79.126 224.007C77.747 224.003 76.3611 223.989 74.9707 223.964C74.2693 223.951 73.569 223.939 72.8653 223.92C72.4272 223.909 71.9891 223.896 71.5498 223.881C70.4647 223.846 69.3774 223.799 68.29 223.744C67.9325 223.726 67.5761 223.711 67.2197 223.692C65.8849 223.617 64.549 223.526 63.2142 223.419C62.9929 223.401 62.7705 223.382 62.5491 223.363C61.203 223.249 59.858 223.118 58.5164 222.964C58.1737 222.926 57.8343 222.876 57.4927 222.834C56.436 222.704 55.3804 222.565 54.3294 222.408C53.7936 222.328 53.2602 222.238 52.7267 222.149C51.8846 222.012 51.0458 221.863 50.2093 221.706C49.4273 221.558 48.6464 221.408 47.87 221.241C47.4535 221.152 47.0392 221.054 46.6238 220.958C45.8156 220.774 45.0098 220.582 44.2096 220.375C43.7215 220.249 43.2369 220.111 42.7511 219.976C38.2099 218.717 33.8015 217.092 29.6213 214.975L29.4363 214.882C28.3308 214.318 27.24 213.721 26.1686 213.087L26.1481 213.094C24.5671 212.162 23.0223 211.155 21.5218 210.058H21.5207L21.3482 210.066L21.3073 210.064H21.3107C20.7568 210.11 20.4685 209.732 20.439 209.301L20.4401 209.275L20.464 208.975L20.5207 208.828L20.5854 208.661L20.7398 208.471L20.8056 208.392C20.8941 208.314 20.9997 208.249 21.1212 208.206C21.3663 207.971 21.7125 207.894 22.0757 208.11C22.5286 208.1 22.9758 208.133 23.4184 208.192ZM38.9556 200.031C39.287 199.071 40.9044 199.144 40.8193 200.288C40.7853 200.75 40.8011 201.179 40.8363 201.597C40.8454 201.719 40.8488 201.847 40.8636 201.968L40.867 201.977L40.8681 201.993L40.9271 202.121C41.0656 202.491 41.229 202.842 41.4084 203.178L41.5661 203.467C41.7704 203.818 41.9941 204.15 42.2381 204.465L42.4401 204.707L42.5241 204.808L42.498 204.81L42.6807 204.995C42.8328 205.165 42.9963 205.326 43.1608 205.486L43.3186 205.644C43.4707 205.786 43.6319 205.92 43.7942 206.054C43.944 206.18 44.0983 206.303 44.2561 206.422L44.3129 206.467L44.3901 206.532H44.3935C44.5013 206.611 44.6114 206.688 44.7226 206.765C44.9973 206.955 45.2799 207.135 45.5693 207.309C45.7305 207.404 45.8951 207.495 46.0585 207.586C46.2708 207.704 46.4853 207.818 46.7032 207.929C46.8462 208.001 46.987 208.077 47.1334 208.147C47.4728 208.31 47.8178 208.465 48.1663 208.613C48.3047 208.672 48.4432 208.73 48.5817 208.787C48.9063 208.921 49.2331 209.05 49.5623 209.175L49.736 209.242C50.1559 209.4 50.5782 209.548 51.0004 209.695L51.1581 209.749V209.75L51.2308 209.774C51.5316 209.878 51.8323 209.979 52.1309 210.079L52.1297 210.08L52.4259 210.177L52.4453 210.183L52.4464 210.184L52.4736 210.19H52.4748C52.7369 210.249 52.9935 210.301 53.2534 210.357C54.0002 210.516 54.7357 210.668 55.4417 210.813L55.4394 210.815C56.504 211.033 57.5108 211.244 58.3927 211.471C59.6004 211.781 59.0851 213.647 57.8785 213.337C57.0818 213.132 56.2146 212.935 55.3089 212.734C55.1023 212.923 54.8197 213.019 54.4644 212.896C53.4702 212.551 52.426 212.201 51.3738 211.839L51.3522 211.833C50.6928 211.671 50.0311 211.494 49.375 211.305C48.8995 211.17 48.4273 211.029 47.9608 210.875L47.7225 210.794C47.2548 210.636 46.7952 210.468 46.3457 210.29L46.155 210.216C45.6806 210.023 45.222 209.814 44.7748 209.593L44.4888 209.449C44.045 209.218 43.6126 208.976 43.204 208.713L43.0723 208.621C42.6977 208.374 42.3436 208.107 42.0077 207.828L41.8034 207.658C41.4935 207.386 41.212 207.091 40.943 206.787C40.8261 206.654 40.716 206.518 40.6071 206.378C40.4073 206.123 40.2257 205.853 40.0577 205.574C39.9612 205.414 39.8591 205.258 39.7739 205.091C39.707 204.962 39.6468 204.829 39.5878 204.695C39.4754 204.443 39.379 204.181 39.2927 203.912C39.2507 203.785 39.2031 203.661 39.1679 203.53C39.0555 203.111 38.9647 202.676 38.9148 202.213C38.8728 202.072 38.8296 201.931 38.7888 201.79C38.7195 201.524 38.6389 201.267 38.589 200.985V200.956L38.5879 200.958C38.5266 200.555 38.698 200.237 38.9556 200.031ZM12.2748 208.471C7.37385 213.997 8.16609 225.231 7.87894 232.177C7.84602 232.985 7.7995 233.825 7.74842 234.686C7.0606 237.184 6.88014 239.932 7.12984 242.681C7.05947 243.732 7.06288 244.771 7.10033 245.805C7.0084 248.76 6.93917 251.832 7.30691 254.805C6.74849 260.422 10.2023 266.02 14.6924 269.657C15.0409 269.996 15.412 270.277 15.8013 270.5C16.345 270.886 16.8955 271.256 17.4562 271.581C26.2809 276.705 38.4188 277.494 48.3286 278.998C48.4943 279.024 48.6634 279.04 48.8291 279.065C53.2 280.247 57.6811 281.119 62.111 281.314C70.3274 281.677 78.7832 281.026 87.0246 280.974C92.0969 280.941 97.234 280.761 102.386 280.485C108.952 281.389 115.658 281.547 122.201 281.617C126.379 281.663 130.244 280.5 134.344 280.25C138.222 280.012 142.135 280.134 146.016 279.792C153.293 279.147 160.489 278.291 167.554 276.328C173.843 274.579 180.396 273.158 185.148 268.339C190.063 263.353 190.826 257.158 190.466 250.495C190.386 249.022 190.213 247.576 190.001 246.14C190.487 243.546 190.763 240.925 190.817 238.371C190.999 229.974 188.731 218.866 183.884 210.648L183.875 210.62C183.109 208.37 181.956 206.384 180.542 204.612C180.093 203.822 179.54 203.142 178.802 202.678C173.128 197.03 164.503 194.035 157.052 192.581C145.258 190.279 133.064 190.504 121.104 189.918C107.678 189.26 94.2365 189.795 80.7979 189.831C66.6409 189.87 52.0525 192.156 38.2485 195.195C29.8596 197.043 16.5255 199.068 12.6528 208.101C12.5246 208.219 12.3963 208.336 12.2748 208.471Z" fill="#4D403D"/>
<path d="M29.4046 66.656C29.1243 65.2566 27.0177 65.9285 27.2889 67.3155C27.7339 69.5957 28.1334 71.8895 28.6884 74.1459C29.2242 76.3229 30.2502 78.3625 30.6985 80.5429C31.0163 82.0899 33.3204 81.3397 33.031 79.8165C32.619 77.6429 31.4806 75.6101 30.8949 73.4581C30.2843 71.2165 29.862 68.9329 29.4046 66.656Z" fill="#4D403D"/>
<path d="M40.7729 81.7585C39.7185 79.5509 38.7481 77.4091 38.1317 75.0335C37.8423 73.9189 35.9412 74.2094 36.1069 75.3853C36.4724 77.9754 37.6414 80.3476 38.6641 82.7266C39.3258 84.2657 41.5073 83.2964 40.7729 81.7585Z" fill="#4D403D"/>
<path d="M153.449 146.102C153.608 140.284 152.103 134.407 151.079 128.713C150.89 127.661 149.068 127.965 149.216 129.036C150.005 134.796 151.154 140.358 151.286 146.194C151.318 147.597 153.412 147.485 153.449 146.102Z" fill="#4D403D"/>
<path d="M160.119 145.959L160.17 145.965C160.177 143.364 159.788 140.777 159.601 138.187C159.502 136.808 157.399 136.885 157.449 138.276C157.539 140.876 157.741 143.463 157.758 146.066C157.769 147.635 160.122 147.456 160.119 145.959Z" fill="#4D403D"/>
</svg>
