<svg width="100" height="90" viewBox="0 0 100 90" fill="none" xmlns="http://www.w3.org/2000/svg">
<path d="M92.866 35.3182C91.0965 37.6381 88.5629 39.8626 86.1181 41.4413C83.5511 43.0992 80.4671 44.1341 77.6607 45.3227C71.7179 47.8382 64.6571 47.7648 58.4224 46.4102C55.3451 45.7415 52.2821 43.9396 50.1816 41.5873C49.5272 40.8537 49.0264 40.0715 48.6296 39.2292C50.3667 40.8728 52.5931 42.0594 54.8395 42.7462C57.707 43.6229 60.6794 43.8251 63.6727 43.9882C66.6689 44.1523 69.4018 43.3443 72.2645 42.6003L72.4086 42.5631C73.6973 42.3666 74.9774 42.1243 76.2156 41.7742C78.6767 41.0769 80.968 40.0391 83.2736 38.9468C87.5318 36.9284 91.5935 34.722 94.4028 30.8186L94.4581 30.7423L94.6574 30.5706C95.4072 29.8847 96.0635 29.1636 96.6492 28.4052C96.1741 29.4584 95.6161 30.4924 95.0962 31.4959C94.4323 32.7741 93.7398 34.1716 92.866 35.3182ZM58.7878 41.6369C56.0787 41.4337 53.692 40.3329 51.3387 39.0222C49.9651 38.2581 48.4408 36.8368 47.7959 35.2209C47.7444 34.7716 47.7501 34.3147 47.8045 33.8558C48.1078 33.8043 48.3625 33.5697 48.3778 33.2806C49.7495 33.3312 52.0551 34.4024 52.782 34.6313C54.5314 35.1827 56.5175 35.5481 58.3528 35.3039C62.2399 34.7859 64.6409 31.8975 67.4177 29.4965C68.7665 28.3299 69.3866 26.7922 70.3033 25.2802C71.4852 23.3285 73.1373 21.6353 74.7847 20.0738C76.311 18.6277 78.1482 17.607 79.8681 16.4242C81.6176 15.2223 83.5206 14.1644 85.4666 13.3364C87.3829 12.5218 88.9149 11.5698 91.107 11.6747C92.1277 11.7243 93.0559 11.8636 93.8915 12.1593C94.4829 12.8814 95.0457 13.6073 95.6839 14.2922C96.5281 15.1994 97.316 15.91 97.8196 17.0738C97.8893 17.2322 97.9542 17.3895 98.0171 17.545C98.2308 18.3883 98.3405 19.2506 98.2956 20.0824C98.165 22.472 96.9697 24.6583 95.702 26.6272C95.0257 27.6774 94.3322 28.6733 93.6024 29.6205C92.1181 31.0447 90.4393 32.3324 88.706 33.6355C84.8913 36.5039 80.5559 38.3573 76.1297 40.0849C75.0623 40.5008 73.9778 40.8651 72.8836 41.1904C68.2343 42.0432 63.4943 41.9879 58.7878 41.6369ZM85.438 11.8016C85.0612 11.9933 84.6853 12.1879 84.298 12.3586C83.1333 12.8747 81.9943 13.572 80.8955 14.2149C76.9072 16.5482 73.0601 19.3174 70.2613 23.0462C69.4486 24.1298 68.8286 25.286 68.136 26.444C67.3748 27.7146 66.4753 28.5712 65.4183 29.5947C63.5153 31.4358 61.2612 33.4619 58.5598 33.9569C57.3836 34.1735 56.1712 34.0953 54.9616 33.8739C55.2392 33.8272 55.5006 33.7729 55.7381 33.7099C59.4908 32.7302 63.1394 30.8501 65.3296 27.5085C66.6498 25.4968 67.2842 23.3104 68.944 21.4751C70.7287 19.5034 72.7081 17.7901 74.9202 16.3164C76.6735 15.1478 78.5574 14.3847 80.4576 13.5005C82.126 12.724 83.7324 12.1164 85.438 11.8016ZM64.4893 6.04474C67.7144 4.15028 71.7733 3.59033 75.4086 3.00654C78.69 2.47903 82.0554 2.42561 85.1957 3.67046L85.2271 3.68573L85.3264 3.72006C85.4418 3.76776 85.5601 3.80307 85.6745 3.85458C88.5028 5.10706 90.4507 7.60439 92.017 10.1599L92.018 10.1675C91.9522 10.1885 91.8539 10.2295 91.6822 10.323L91.501 10.3812C90.9239 10.3621 90.3553 10.384 89.7906 10.447C88.935 10.3755 88.0526 10.2371 87.6243 10.2352C83.9184 10.218 80.6351 11.9561 77.3412 13.4451C74.0817 14.9189 71.242 17.2178 68.758 19.7629C67.2823 21.2757 66.129 22.8668 65.2161 24.7794C64.2479 26.8084 63.2034 28.4577 61.3032 29.7302C59.5299 30.9168 57.9435 31.7773 55.8755 32.301C54.5209 32.6434 53.2818 32.9716 51.872 32.6968C50.7387 32.4765 49.139 31.8527 49.097 30.5239C49.0856 30.1614 48.8357 29.9725 48.5571 29.9324C48.5171 28.6609 48.5619 27.3922 48.8604 26.1435C49.3622 24.0373 50.2627 21.9711 51.3282 20.091C53.2789 16.6493 55.9155 13.158 58.8183 10.4585C60.065 9.29851 61.4835 8.34652 62.7178 7.19134L62.7923 7.12454C63.3532 6.74775 63.9198 6.38052 64.4893 6.04474ZM99.9259 19.1237C99.9316 18.8643 99.9382 18.6058 99.9363 18.3425C99.9335 18.0678 99.7856 17.897 99.5967 17.8102C99.4718 17.4305 99.3239 17.0433 99.1551 16.6665C98.4435 14.235 96.9296 11.8798 94.626 10.9335C94.4008 10.6616 94.1805 10.3879 93.9878 10.1055C93.6196 9.56749 93.4584 9.01997 93.012 8.52298L92.8755 8.42186C92.3003 6.9767 91.458 5.89688 90.3715 4.67588C89.1753 3.33087 87.5823 3.13343 86.0465 2.56681C85.8653 2.48095 85.6726 2.41228 85.4847 2.33597C85.3072 2.25679 85.1317 2.17188 84.9581 2.07458C81.3857 0.0675583 77.0703 0.642761 73.1765 1.45263C71.0502 1.89333 68.57 2.19381 66.5773 3.07427C65.7312 3.4482 64.8679 3.9366 64.0609 4.39162C63.3722 4.7789 62.8332 5.29498 62.2867 5.81581C57.5715 8.65463 53.8427 12.8041 50.8885 17.4258C49.3145 19.8878 48.1307 22.7467 47.1129 25.4844C46.3784 27.4618 45.7612 30.6908 46.7075 32.8333L46.6837 32.8733C46.4194 32.9325 46.1838 33.1232 46.1647 33.4704C46.1352 34.0285 46.1914 34.5522 46.3126 35.0482C46.3927 35.9935 46.656 36.9608 46.8286 37.6285C47.4411 40 48.6039 41.9316 50.4153 43.5885C54.6144 47.429 60.2262 48.5002 65.7522 48.5565C67.2002 48.5718 68.6635 48.6299 70.1087 48.5345C71.6788 48.4315 73.0944 47.9164 74.6235 47.615C77.3145 47.0856 79.7441 45.8521 82.2405 44.7561C87.0253 42.6575 92.1048 39.5039 94.7709 34.7945C97.068 30.7366 98.9471 26.7216 99.6435 22.2792C99.9392 21.2433 100.105 20.2264 99.9259 19.1237Z" fill="#4D403D"/>
<path d="M58.7982 15.104C57.3368 16.014 56.2122 18.2681 55.387 19.7047C54.0897 21.9626 53.6385 24.4323 52.6741 26.8189C52.4729 27.3178 53.196 27.7309 53.4239 27.2243C54.3187 25.2364 54.8176 23.1102 55.8382 21.1699C56.6223 19.6799 57.7509 17.4525 59.1712 16.3756C59.5108 16.3431 59.8437 16.0408 59.7531 15.5972L59.7226 15.4465C59.6405 15.0459 59.1102 14.9094 58.7982 15.104Z" fill="#4D403D"/>
<path d="M58.0197 13.7228C57.8909 14.0662 58.4804 14.2904 58.6283 13.9527C58.9688 13.1705 59.9838 12.6058 60.7011 12.2052C61.5396 11.7358 62.3858 11.4496 63.2891 11.153C63.9931 10.9221 63.5371 9.84802 62.857 10.2134C61.2449 11.0776 58.7332 11.8216 58.0197 13.7228Z" fill="#4D403D"/>
<path d="M84.0729 33.2225C85.2319 32.1093 86.9222 31.3356 88.1994 30.3178C89.5826 29.216 90.8561 28.0418 91.9178 26.6214C93.9477 23.9056 94.5725 20.5717 94.4657 17.2502C94.4485 16.7103 93.631 16.7485 93.63 17.2855C93.6205 20.9094 92.5807 24.3244 90.0968 27.0373C88.9683 28.2698 87.6242 29.3028 86.2811 30.2863C85.2996 31.0056 84.0299 31.5235 83.1933 32.3935C82.6496 32.9572 83.5148 33.7586 84.0729 33.2225Z" fill="#4D403D"/>
<path d="M78.7243 32.8228C79.2957 32.3563 79.9958 32.1417 80.6378 31.7907C81.3685 31.3891 82.0544 30.8902 82.7135 30.3808C83.7752 29.5595 84.6433 28.6084 85.4159 27.5124C85.6334 27.2033 85.1097 26.8218 84.876 27.1223C83.9259 28.3433 82.8289 29.3429 81.5526 30.2205C80.5071 30.9388 79.0877 31.2841 78.2111 32.198C77.9001 32.5214 78.357 33.1233 78.7243 32.8228Z" fill="#4D403D"/>
<path d="M45.5789 79.4285C44.5859 81.5367 42.8498 83.2919 41.1662 84.8649C39.2412 86.663 36.0323 88.3991 33.3928 88.5183C30.6608 88.6414 27.7523 88.6242 25.0509 88.1873C22.026 87.6999 19.5316 86.3616 16.9294 84.8229C14.3843 83.3196 12.0692 81.7647 9.90763 79.7281C7.89489 77.8308 6.24369 75.7598 4.90154 73.3388C3.49167 70.7948 2.79821 67.9025 1.99693 65.1171C1.24239 62.4958 0.993415 59.9174 1.32537 57.298C1.52569 59.3202 2.08847 61.3578 2.70374 63.2618C3.33522 65.2154 4.00394 67.374 5.28599 69.0052C8.3175 72.8619 11.721 76.0899 15.9812 78.5357C18.0779 79.7395 20.1879 81.012 22.3609 82.0652C24.3584 83.0334 26.828 83.0152 28.9972 83.0095C31.2665 83.0028 33.8859 83.3863 36.0246 82.461C36.3098 82.338 36.5903 82.193 36.8688 82.0375C37.6978 81.9135 38.4495 81.3765 39.1868 80.9873C40.28 80.4101 41.3904 79.8817 42.4482 79.2407C44.2225 78.1675 45.5751 76.852 46.7131 75.1522C46.5014 76.6088 46.2285 78.0473 45.5789 79.4285ZM10.8453 43.5274C11.6065 43.2689 12.4699 43.184 13.3541 43.1821C14.6724 43.6247 16.2254 43.4778 17.4998 44.1446C19.0976 44.9812 20.4292 47.0912 21.2534 48.6422C23.1355 52.1831 22.7911 56.4032 23.8203 60.2083C24.7933 63.8027 26.3358 67.1957 29.3711 69.5013C30.8792 70.646 32.437 71.3595 34.0968 72.2218C35.9874 73.2034 37.9277 73.3808 39.9747 73.8606C40.3038 73.9379 40.6205 74.0314 40.901 74.1573C41.0355 74.0905 41.1872 74.059 41.3379 74.1077C41.7318 74.2317 42.0371 74.3748 42.2727 74.5312C42.4139 74.5846 42.5503 74.6419 42.681 74.7058L42.6876 74.7096C42.8164 74.7716 42.9395 74.8403 43.0549 74.9128C43.654 75.2886 44.0555 75.8152 43.9916 76.5659L43.9811 76.626L43.9802 76.6269C43.9697 76.7128 43.9506 76.7967 43.9277 76.8788L43.8877 77.0047C43.4689 78.2152 41.8196 79.0289 40.2466 79.5382C40.0129 79.6145 39.782 79.6823 39.556 79.7453L39.5131 79.7567L39.4329 79.7968C39.3251 79.8521 39.2173 79.9065 39.1067 79.9542C38.9703 80.0133 38.8301 80.0677 38.6879 80.1163L38.5096 80.205L38.3598 80.329C38.189 80.4693 38.0164 80.5914 37.8437 80.7039L37.7006 80.7907C37.5661 80.8728 37.4316 80.9472 37.2962 81.0139L37.1665 81.0769C36.8011 81.2448 36.4281 81.3669 36.0485 81.4499C35.6163 81.5453 35.1757 81.5968 34.7216 81.6197C34.4297 81.6979 34.1292 81.7522 33.8173 81.778C31.7426 81.944 29.5428 81.8572 27.4624 81.7885C24.9374 81.7055 22.8779 81.0988 20.7049 79.8492C17.04 77.7401 13.3255 75.7703 10.2415 72.8161C8.67423 71.3146 6.99633 69.5127 5.81921 67.6898C4.62492 65.8421 3.99251 63.402 3.43733 61.2929C2.77723 58.7822 2.22109 56.4633 2.63317 53.8468C2.84971 52.4684 3.30471 51.068 3.97339 49.7927C4.24526 49.3672 4.51617 48.9427 4.76227 48.5058C5.01315 48.1471 5.27833 47.8009 5.56927 47.4813C6.96293 45.9532 8.97663 44.5786 10.8453 43.5274ZM15.7875 41.2857L15.8343 41.2733L15.8371 41.2953L15.7875 41.2857ZM36.4977 71.8069C32.5142 70.5906 28.6605 68.2927 26.704 64.5457C25.4315 62.1085 24.6588 59.2153 24.3049 56.5024C23.9825 54.0203 23.8051 51.564 22.8283 49.2394C22.0661 47.4222 20.8966 45.5125 19.4601 44.1293C20.7526 44.9974 21.8477 45.8559 22.7834 47.3049C24.9383 50.6416 26.8624 54.11 27.8821 57.9667C28.4001 59.9288 29.0105 61.9005 29.8242 63.7645C30.491 65.2955 31.5594 66.4965 32.6783 67.7108C33.4481 68.5455 34.2971 69.2886 35.0192 70.169C35.4647 70.7118 35.8625 71.2822 36.4052 71.7363L36.4977 71.8069ZM24.8525 41.4584C27.3327 41.9382 29.9521 42.8243 32.0497 44.1798C33.0303 44.8142 33.9947 45.3885 34.8828 46.1668C35.8214 46.9882 36.5931 47.4994 37.6854 48.1147C40.0291 49.4387 41.9875 51.689 43.404 53.9536C44.9446 56.4156 46.4613 59.1333 47.1395 61.9702C47.7624 64.5753 48.2212 67.7785 47.5688 70.4237C47.3131 71.4615 46.8705 72.507 46.3116 73.5C46.2982 73.5983 46.2877 73.6946 46.2734 73.7929C46.2438 73.997 46.0721 74.1372 45.8842 74.2116L45.7154 74.4635C45.6114 74.3757 45.4854 74.3185 45.3366 74.3404C44.7261 74.4282 44.4314 74.5188 43.8008 74.0781C43.3725 73.9751 42.9404 73.8358 42.5121 73.6784C42.2861 73.5935 42.0609 73.5058 41.8387 73.4123L41.6498 73.3322C41.1328 73.109 40.6311 72.8686 40.1627 72.6349L40.0148 72.5604C39.7935 72.4488 39.577 72.3391 39.3747 72.2342C39.2479 72.1693 39.1038 72.095 38.956 72.0167L38.8663 71.9671L38.7232 71.8879C38.6354 71.8403 38.5487 71.7916 38.458 71.7401L38.3045 71.6495C38.169 71.5684 38.0316 71.4816 37.8962 71.391L37.7884 71.3213C37.6262 71.2088 37.4679 71.0895 37.3181 70.9665C36.9385 70.6507 36.6132 70.2968 36.4291 69.9057C36.1992 69.6663 35.9693 69.4154 35.7365 69.1359C34.4297 67.5696 32.7661 66.3047 31.6376 64.5839C29.3015 61.0172 29.0878 56.386 27.2363 52.5771C26.3596 50.7714 25.2541 49.0181 24.2124 47.301C23.2948 45.7882 22.2808 44.3993 20.765 43.4435C19.6194 42.7214 18.2286 41.921 16.7891 41.5089C16.812 41.342 16.8282 41.1607 16.8788 41.0081C17.5484 40.865 18.2267 40.7744 18.9125 40.7725C19.0852 40.7716 19.2073 40.7019 19.2845 40.6008C19.7224 40.6599 20.1516 40.7334 20.5351 40.7658C21.9946 40.8879 23.4188 41.1808 24.8525 41.4584ZM48.3014 61.6086C47.6928 59.0522 46.3926 56.7848 45.1115 54.5164C43.9907 52.5323 42.5503 50.3011 40.7751 48.8435C39.9356 48.1548 39.0094 47.4393 38.0459 46.9366C36.8392 46.3051 35.9559 45.4781 34.8971 44.6339C33.2831 43.3471 31.5689 42.2377 29.6039 41.5662C27.1685 40.7343 24.5797 40.0103 22.0232 39.6965C21.675 39.6536 21.3078 39.5944 20.9319 39.5334C20.8451 39.459 20.7354 39.3998 20.5819 39.3865C20.1707 39.3502 19.7615 39.3245 19.357 39.3149C18.923 39.2739 18.4919 39.2577 18.074 39.2863L17.9424 39.2596C16.7147 39.2148 15.6959 39.6698 14.8136 40.3671C11.7191 41.3544 8.83164 43.3567 6.34386 45.2082C4.17658 46.8212 2.64941 49.1764 1.86148 51.7586C1.44939 52.6324 1.11171 53.5434 0.834123 54.4649C-0.0262999 57.3275 -0.26576 60.3753 0.326615 63.3114C1.53998 69.3296 3.67009 75.2066 8.06759 79.627C10.2387 81.8085 12.5681 83.6963 15.2314 85.2388C17.9777 86.829 20.5971 88.504 23.7441 89.1756C26.7937 89.8271 29.9034 89.6964 32.9998 89.7193C35.7318 89.7393 38.0917 88.3819 40.363 86.9787C42.6533 85.5631 44.8196 83.1812 46.1932 80.8718C47.6947 78.3468 48.3166 74.9366 48.288 72.0034C48.351 71.9108 48.3777 71.8011 48.3767 71.6914C49.3736 68.4596 49.1027 64.9712 48.3014 61.6086Z" fill="#4D403D"/>
<path d="M7.95886 65.764C8.19066 66.2857 9.04725 66.0425 8.82404 65.495C7.03165 61.0927 5.67045 56.4748 6.58334 51.7063C6.75981 51.5794 6.79988 51.2675 6.56331 51.1415L6.45455 51.0843C6.25709 50.9794 6.01004 51.091 5.95757 51.3095C4.80239 56.1438 5.97283 61.3035 7.95886 65.764Z" fill="#4D403D"/>
<path d="M12.9326 68.1163C11.5953 66.259 10.4887 64.4466 10.275 62.1029C10.234 61.6459 9.55486 61.6698 9.56058 62.1324C9.59111 64.6078 10.8045 66.632 12.0951 68.639C12.4404 69.177 13.3018 68.6285 12.9326 68.1163Z" fill="#4D403D"/>
<path d="M40.2323 55.601C41.5859 56.9832 42.2965 59.3756 42.6762 61.188C43.157 63.487 43.3668 65.907 43.5366 68.2489C43.59 68.991 44.749 68.9471 44.6947 68.2002C44.5058 65.5903 44.253 62.8383 43.5662 60.3047C43.0797 58.5075 42.1401 56.0446 40.6139 54.8885C40.4422 54.7587 40.1131 54.731 40.0148 54.9848L39.9805 55.0754C39.8889 55.3129 40.0339 55.5504 40.2323 55.601Z" fill="#4D403D"/>
<path d="M41.1128 63.5022C41.2082 64.9521 41.4228 66.217 41.0737 67.6631C40.9344 68.244 41.8864 68.4472 41.9665 67.8701C42.1831 66.3162 41.8244 65.0036 41.6231 63.4812C41.5802 63.1617 41.0909 63.1693 41.1128 63.5022Z" fill="#4D403D"/>
<path d="M17.6962 23.8226C17.8937 24.809 17.9881 26.0548 18.6263 26.8675C19.129 27.5076 20.1849 26.899 19.7242 26.1807C19.1862 25.3422 19.0717 24.0573 18.8819 23.1024C18.6148 21.7517 18.4593 20.3781 18.3163 19.0092C18.0845 16.7943 17.97 14.5774 18.0453 12.3529C18.4431 12.1583 18.425 11.3923 17.9032 11.2854C17.805 11.2645 17.7077 11.2444 17.6094 11.2244C17.2078 11.1414 16.9197 11.4371 16.8959 11.8168C16.7118 14.6766 16.873 17.5259 17.1859 20.3704C17.3127 21.5275 17.4663 22.6799 17.6962 23.8226Z" fill="#4D403D"/>
<path d="M24.9393 28.6046C25.4334 29.2285 26.4961 28.5807 26.001 27.9416C25.1549 26.8504 24.904 25.5245 24.6236 24.2023C24.3603 22.9613 23.1908 18.9825 24.0913 17.7806C24.4777 17.2646 23.7584 16.5644 23.3521 17.0824C22.8646 17.7053 22.6719 18.1822 22.6833 18.9692C22.7024 20.2808 23.0344 21.7746 23.2452 23.0824C23.54 24.9244 23.7479 27.0965 24.9393 28.6046Z" fill="#4D403D"/>
<path d="M73.2279 64.1785C72.7328 66.6606 72.2492 69.1608 71.4202 71.5589C70.5035 74.2117 69.0507 76.0499 67.3213 78.1943C66.8024 78.8391 67.763 79.7215 68.2523 79.0709C69.7662 77.0553 71.197 75.407 72.1013 73.0069C73.1478 70.233 73.6924 67.315 74.2352 64.4103C74.3564 63.7598 73.3595 63.5232 73.2279 64.1785Z" fill="#4D403D"/>
<path d="M78.7978 72.0101C78.9551 74.0505 78.399 75.9335 77.7742 77.847C77.4222 78.9249 77.2839 80.4588 76.7421 81.5176C76.4015 81.5987 76.1106 81.9021 76.2527 82.3247L76.3376 82.5765C76.5284 83.1402 77.2248 83.1459 77.53 82.6919C78.3475 81.4757 78.4152 79.7815 78.8368 78.4022C79.4864 76.2845 80.075 74.1993 79.8575 71.9653C79.7908 71.2918 78.7443 71.3252 78.7978 72.0101Z" fill="#4D403D"/>
</svg>
