<svg width="291" height="480" viewBox="0 0 291 480" fill="none" xmlns="http://www.w3.org/2000/svg">
<path d="M170.906 146.585C155.735 125.158 130.485 118.7 105.484 118.12C101.978 118.04 99.0604 118.879 96.706 120.32C90.1949 119.597 83.6308 120.109 77.6121 122.547C71.2022 125.143 66.5332 129.986 64.2368 135.604C57.9794 146.974 64.7026 160.547 74.3756 169.391C74.9277 174.967 78.2522 180.072 85.0716 182.103C85.9255 183.073 86.7942 184.028 87.673 184.971C92.473 192.975 98.6442 199.872 106.608 205.471C105.649 212.47 107.865 220.08 112.583 225.661C126.91 242.606 167.839 248.728 173.924 221.107C176.726 208.462 178.251 194.692 179.462 181.8C180.639 169.316 178.218 156.926 170.906 146.585Z" fill="#F87171"/>
<path d="M63.9816 433.416C59.291 387.137 57.696 340.637 59.2097 294.146C59.9044 272.801 26.7422 272.825 26.0491 294.146C24.5353 340.637 26.1304 387.137 30.821 433.416C31.7246 442.324 37.7946 449.996 47.4013 449.996C55.6666 449.996 64.8919 442.379 63.9816 433.416Z" fill="#F87171"/>
<path d="M274.135 292.317C267.006 279.063 246.596 281.025 233.762 280.015C175.317 275.412 116.798 277.654 58.739 285.503C50.2267 286.654 45.5859 297.57 47.6418 305.048C50.1654 314.233 58.6478 317.299 67.1867 316.145C98.3693 311.929 129.88 309.783 161.34 309.393C176.759 309.203 192.195 309.46 207.599 310.163C215.806 310.539 224.03 311.04 232.22 311.67C235.702 311.937 239.168 312.239 242.633 312.55C241.854 317.259 241.141 321.98 240.477 326.707C239.002 337.29 237.742 347.9 236.846 358.547C235.503 374.614 234.94 390.723 235.056 406.838C207.234 411.369 179.429 416.204 151.519 419.991C122.455 423.934 94.322 421.704 68.0869 407.703C50.0509 398.078 33.9797 425.499 52.0489 435.142C82.5732 451.432 115.719 456.242 149.854 451.992C185.166 447.597 220.283 441.141 255.416 435.563C262.032 434.513 267.271 426.625 267.072 420.241C266.21 391.841 267.387 363.334 271.118 335.154C272.063 328.015 273.223 320.899 274.5 313.81C275.81 306.573 277.849 299.223 274.135 292.317Z" fill="#F87171"/>
<path d="M56.9347 387.319C56.9513 382.824 56.9678 378.331 56.9844 373.836C57.0176 364.611 58.518 355.556 58.5263 346.323C58.5313 342.08 58.4716 337.834 58.5346 333.591C58.581 330.409 58.417 323.541 61.2788 321.552C64.434 319.36 69.3434 320.202 72.8534 320.426C77.2406 320.705 81.6377 320.761 86.0331 320.772C94.4775 320.792 102.89 320.423 111.331 320.258C119.882 320.093 128.21 320.618 136.727 319.507C144.998 318.428 153.366 318.063 161.687 317.733C169.928 317.41 178.251 317.929 186.475 317.239C195.064 316.52 203.702 316.765 212.307 316.871C216.419 316.921 220.514 316.933 224.626 316.933C227.743 316.933 235.072 315.656 237.012 318.501C238.919 321.33 238.703 327.214 239.018 330.596C239.482 335.426 240.096 340.148 239.996 345.013C239.814 353.721 239.996 362.377 239.383 371.056C239.101 374.993 239.499 378.968 239.333 382.909C239.151 387.463 239.25 394.475 235.52 397.427C229.617 402.109 220.647 402.392 213.716 403.774C205.078 405.491 196.39 406.282 187.652 407.265C178.981 408.244 170.259 408.036 161.571 408.826C152.645 409.638 143.585 410.45 134.62 410.558C125.071 410.673 115.493 409.752 105.948 410.313C101.217 410.59 96.6312 411.069 91.8793 410.93C87.5568 410.804 83.2758 410.409 78.96 410.222C71.8487 409.913 57.5084 409.553 57.0027 399.245C56.9828 398.831 56.8269 398.526 56.6246 398.284C56.4356 394.651 56.9214 390.725 56.9347 387.319ZM54.005 398.944C53.9784 399.085 53.9369 399.217 53.9452 399.383C54.3 406.644 59.5561 409.867 65.4786 411.651C72.9066 413.888 81.578 413.965 89.258 414.14C98.8879 414.355 108.418 413.435 118.056 413.559C122.896 413.622 127.738 413.796 132.577 413.839C137.533 413.884 142.423 413.168 147.37 413.063C156.796 412.865 166.148 411.523 175.582 411.374C185.248 411.221 194.964 409.782 204.564 408.791C208.958 408.338 213.236 407.085 217.58 406.358C221.808 405.649 225.853 404.981 229.949 403.5C232.767 402.479 236.033 401.477 238.272 399.245C241.173 396.359 241.488 392.476 241.87 388.485C242.251 384.448 242.384 380.548 242.384 376.487C242.384 371.296 242.981 366.179 242.964 360.98C242.948 350.717 243.064 340.671 242.085 330.459C241.621 325.659 241.953 314.548 235.719 313.684C232.104 313.185 228.141 313.653 224.494 313.653C219.155 313.653 213.816 313.608 208.477 313.543C198.695 313.424 188.962 314.212 179.213 314.2C169.746 314.187 160.311 314.437 150.865 314.991C141.401 315.543 132.017 317.315 122.535 317.131C112.996 316.946 103.512 317.458 93.9784 317.495C88.6031 317.516 83.2194 317.556 77.8474 317.39C73.1486 317.248 68.2657 316.346 63.6083 317.315C60.5276 317.955 57.7554 319.429 56.6993 322.779C55.5187 326.516 55.4938 331.192 55.4938 335.103C55.4938 340.705 55.6066 346.328 55.4441 351.929C55.2766 357.735 54.2288 363.447 54.0182 369.253C53.8176 374.809 53.9834 380.394 54.0066 385.953C54.0215 390.02 53.5606 394.679 54.005 398.944Z" fill="#4D403D"/>
<path d="M134.259 361.028C134.332 360.497 134.425 359.96 134.532 359.421C134.731 358.144 135.012 356.868 135.446 355.591C135.526 355.354 135.642 355.148 135.779 354.964C136.126 354.008 136.527 353.069 136.971 352.157C138.109 349.063 139.75 346.265 142.297 344.444L142.463 344.364C143.305 343.784 144.22 343.28 145.272 342.935C149.115 340.289 154.769 340.35 159.449 342.726C159.997 343.005 160.544 343.295 161.058 343.637C161.439 343.885 161.754 344.152 162.069 344.426L162.235 344.587L162.417 344.776C162.6 344.958 162.782 345.145 162.931 345.336L162.981 345.407L163.23 345.762C163.362 345.958 163.495 346.155 163.594 346.359L163.777 346.722L163.81 346.793C163.893 346.996 163.976 347.198 164.042 347.405L164.158 347.825C164.224 348.08 164.274 348.339 164.307 348.601C164.341 348.785 164.34 348.974 164.357 349.163C164.374 349.431 164.39 349.698 164.374 349.972L164.341 350.3C164.324 350.592 164.307 350.885 164.258 351.182C164.224 351.338 164.191 351.494 164.158 351.65C164.108 351.892 164.059 352.134 163.992 352.378C163.777 353.149 163.495 353.928 163.163 354.702V354.722C163.014 355.036 162.882 355.347 162.716 355.657C162.351 357.302 161.771 358.856 161.008 360.305C160.776 360.742 160.51 361.17 160.245 361.586L160.063 361.891C159.748 362.362 159.4 362.818 159.035 363.259C158.488 363.931 157.891 364.571 157.228 365.166C156.796 365.712 156.316 366.244 155.785 366.761C152.99 369.523 148.84 372.71 145.127 373.693C144.114 373.962 143.119 374.05 142.166 373.982C141.745 374.017 141.317 374.033 140.879 374.013C136.086 373.798 134.385 369.809 134.458 365.755C134.386 365.363 134.189 365.095 133.942 364.931C133.969 363.613 134.083 362.301 134.259 361.028ZM156.78 370.271C156.647 370.444 156.515 370.636 156.399 370.82L156.133 370.682C156.365 370.477 156.598 370.266 156.846 370.054L156.78 370.271ZM146.12 381.891C146.076 382.048 146.051 382.214 146.014 382.375C145.482 382.202 144.953 382.007 144.424 381.79C144.985 381.846 145.552 381.886 146.12 381.891ZM161.058 384.112C169.53 376.693 171.652 364.67 169.281 353.585C167.938 347.324 164.937 342.592 159.466 339.686C157.045 338.396 153.336 337.56 150.445 338.404L150.428 338.402C148.816 338.392 147.359 338.782 145.976 339.377C131.929 342.303 125.184 368.99 135.501 380.014C141.465 386.386 153.978 390.317 161.058 384.112Z" fill="#4D403D"/>
<path d="M26.7107 433.867C26.137 430.858 25.7008 427.883 25.4356 424.834C25.1985 422.12 24.2999 419.475 24.2916 416.756C24.2485 403.903 24.4756 391.022 24.4739 378.159C24.4723 352.287 24.4491 326.415 24.3679 300.543C24.3513 295.125 24.2766 289.726 24.517 284.316C24.5916 282.633 24.8023 280.181 24.154 278.292C27.2346 278.201 30.2406 277.898 33.1754 277.279C40.033 276.787 46.8723 275.883 53.7432 275.56C63.9384 275.081 74.1054 274.202 84.3222 274.2C94.7811 274.2 105.24 274.202 115.699 274.202C137.208 274.202 158.72 274.2 180.224 274.2C190.72 274.2 201.182 274.291 211.644 273.318C212.738 273.217 213.816 273.083 214.91 272.963C220.879 272.95 226.848 273.094 232.834 273.484C241.091 274.018 249.331 274.227 257.555 274.764C260.755 274.973 264.038 275.14 267.304 275.157C266.89 305.02 267.056 334.894 267.006 364.757C266.989 372.12 267.138 379.495 267.022 386.855C266.906 394.28 266.127 401.688 265.945 409.117C265.795 415.491 265.464 421.884 266.79 428.171C267.802 433.023 268.001 437.75 268.017 442.55C265.016 442.429 262.015 442.354 259.014 442.364C259.23 441.903 259.23 441.323 258.832 440.836C255.283 436.598 250.873 431.809 248.9 426.591C248.336 425.112 246.048 425.791 246.529 427.329C247.458 430.274 249.281 432.693 251.105 435.139C252.929 437.581 254.62 440.151 256.693 442.399C255.051 442.427 253.41 442.455 251.802 442.533C250.044 442.618 248.303 442.669 246.546 442.726C246.761 442.296 246.728 441.769 246.264 441.341C238.819 434.563 232.419 426.553 227.777 417.573C227.13 416.325 225.306 417.487 225.92 418.726C230.38 427.631 236.581 436.256 244.125 442.814C241.389 442.887 238.637 442.933 235.901 442.958C226.782 442.714 217.679 442.102 208.544 441.946C203.752 441.865 198.993 442.081 194.251 442.46C191.549 442.422 188.863 442.404 186.16 442.387L186.127 442.386C178.202 442.323 170.343 442.215 162.483 442.207C159.814 442.13 157.111 442.154 154.415 442.208C140.266 441.184 125.395 441.537 111.318 442.311C108.155 442.484 105.077 442.829 102.015 443.24C80.8917 442.533 59.6175 442.722 38.597 445.133C34.8797 445.559 31.184 445.707 27.4833 445.861C27.5331 441.83 27.4916 437.959 26.7107 433.867ZM85.5176 241.625C85.3386 239.542 85.3684 236.951 85.8227 235.092C86.665 231.645 90.0441 230.649 93.254 230.299C98.6211 229.717 104.126 229.334 109.523 229.291C121.698 229.193 134.04 228.243 146.19 229.105C152.104 229.526 157.907 229.871 163.826 229.798C169.845 229.725 175.914 229.508 181.916 229.78C184.701 229.906 187.453 230.281 190.239 230.319C193.389 230.362 196.556 230.105 199.673 230.713C203.155 231.395 205.178 232.72 206.305 236.266C206.786 237.823 207.035 239.325 207.167 240.852C202.823 240.829 198.529 241.025 194.251 241.368C191.549 241.33 188.863 241.311 186.16 241.295L186.127 241.293C178.202 241.23 170.343 241.122 162.483 241.114C159.814 241.038 157.111 241.063 154.415 241.116C140.266 240.091 125.395 240.446 111.318 241.219C108.156 241.393 105.077 241.736 102.017 242.149C96.5816 241.966 91.14 241.852 85.6917 241.812L85.5176 241.625ZM103.517 215.937C103.597 212.596 103.076 209.578 102.367 206.412C104.078 206.841 105.829 207.743 107.392 208.224C109.395 208.734 111.408 209.003 113.465 209.316C114.311 209.444 115.147 209.628 115.979 209.824C117.819 209.988 119.673 210.154 121.533 210.455C123.09 210.709 124.636 211.028 126.178 211.361C127.174 211.424 128.176 211.505 129.19 211.691C131.533 212.12 133.902 212.623 136.278 212.84C140.231 213.203 144.192 213.133 148.153 213.268C150.741 213.075 153.313 212.773 155.885 212.482C157.509 212.293 159.134 212.13 160.776 211.984C161.737 211.898 162.682 211.81 163.644 211.755C163.81 211.648 163.992 211.541 164.141 211.432C166.048 211.066 167.938 210.659 169.829 210.228C174.687 209.124 179.512 207.63 184.104 205.672C184.585 210.373 184.635 214.611 186.442 219.213C187.553 222.05 189.228 224.899 191.201 227.346C188.282 227.261 185.364 227.225 182.479 227.071C176.676 226.759 170.856 226.989 165.07 227.042C153.918 227.144 142.877 225.986 131.73 226.21C121.48 226.416 111.225 226.442 100.999 227.079C101.751 223.323 103.424 219.908 103.517 215.937ZM131.482 47.1643C131.37 43.5399 131.201 39.7115 131.525 36.1003C131.599 35.2646 131.664 34.3958 131.747 33.5171V49.847C131.596 48.9351 131.508 48.0282 131.482 47.1643ZM257.041 39.1378C257.273 40.3597 257.522 41.5851 257.804 42.8186C258.268 44.8066 259.114 46.4431 260.291 48.0381C258.268 45.765 257.041 42.7887 257.041 39.5224V39.1378ZM269.924 0.880337H269.94C268.117 1.14231 266.541 1.30647 264.834 2.1471C263.076 3.0159 261.418 4.07536 260.075 5.5195C259.843 5.76655 259.644 6.03847 259.429 6.31371C261.766 3.03081 265.596 0.880337 269.924 0.880337ZM280.369 47.0333C280.701 46.453 281.033 45.8577 281.281 45.236C281.862 43.7835 282.326 42.2615 282.74 40.7195C282.525 43.064 281.663 45.2211 280.369 47.0333ZM176.361 85.6373L176.56 85.5527L176.975 85.4598L176.991 85.4913L176.908 85.5129C176.726 85.5594 176.544 85.5942 176.361 85.6373ZM134.715 78.0932L134.519 78.2192L134.493 77.9324L134.872 77.8976L134.715 78.0932ZM134.653 86.647C134.779 87.1361 134.982 87.6253 135.26 88.1111C134.481 87.8192 134.221 87.2257 134.128 86.3701C134.279 86.5061 134.459 86.6022 134.653 86.647ZM193.207 74.8601C192.908 75.2497 192.626 75.6394 192.328 76.024C192.61 75.6244 192.875 75.2199 193.124 74.812L193.207 74.8601ZM215.391 54.8891C214.612 54.967 213.833 55.0731 213.07 55.1892C213.866 55.0284 214.678 54.8741 215.474 54.7282L215.391 54.8891ZM227.047 60.2544C225.008 60.586 222.952 60.9375 220.913 61.2907C221.874 61.0138 222.836 60.7353 223.781 60.4253C224.875 60.3722 225.97 60.3108 227.047 60.2544ZM278.778 53.7832C278.645 53.9407 278.463 54.0833 278.264 54.2076C278.463 53.6423 278.662 52.9923 278.91 52.3805C278.927 52.8912 278.91 53.3687 278.778 53.7832ZM211.246 58.0261C212.208 57.8768 213.153 57.7475 214.098 57.6397L214.231 57.6679C214.595 57.6828 214.944 57.6845 215.308 57.6944C214.794 57.8122 214.28 57.9332 213.766 58.0427L213.518 58.089C213.236 57.8884 212.888 57.7824 212.506 57.8868C212.092 57.9996 211.677 58.1322 211.246 58.2748V58.0261ZM257.041 18.1736C257.207 17.207 257.472 16.2454 257.621 15.2854C257.87 13.6356 258.566 11.8698 259.064 10.2681C260.224 6.65196 263.474 3.85156 267.105 2.77881C269.029 2.21011 271.831 1.84698 273.704 2.5931C275.329 3.23973 276.639 4.22795 277.932 5.40681C279.391 6.75479 280.602 8.00495 281.116 9.96971C281.613 11.8698 282.21 13.5759 282.475 15.5423C282.674 17.0246 282.757 18.502 282.807 19.9793V26.7855C282.79 27.2795 282.774 27.772 282.774 28.2677C282.707 33.1175 282.011 37.7881 280.585 42.4306C279.922 44.5894 279.093 46.4099 277.584 48.1127L277.169 48.5454C272.262 48.5835 267.354 48.6681 262.43 48.8173C261.982 48.247 261.601 47.6865 261.368 47.3052C260.39 45.6803 259.644 44.2528 259.23 42.3759C258.367 38.453 257.853 34.6164 257.439 30.6354C257.24 28.863 257.472 27.0905 257.19 25.3347C257.124 24.9268 257.074 24.5123 257.041 24.0961V18.1736ZM72.9116 129.595C70.4494 129.449 67.9956 129.248 65.5633 128.93C68.0205 129.147 70.471 129.356 72.9116 129.595ZM46.9551 123.19C46.5473 122.857 46.4959 122.631 46.6899 122.457C46.7513 122.698 46.8407 122.943 46.9551 123.19ZM137.507 115.992C137.469 116.697 137.446 117.408 137.441 118.121C137.235 121.331 137.026 124.536 137.261 127.76C137.018 127.983 136.85 128.302 136.85 128.728C136.854 128.928 136.847 129.131 136.849 129.331C136.66 129.595 136.469 129.859 136.278 130.122C136.035 130.311 135.874 130.596 135.788 130.902C129.442 130.86 123.341 130.765 117.526 130.618C113.034 130.315 108.51 130.18 104.03 130.024C102.851 129.983 101.672 129.995 100.491 130.016C95.1608 129.771 90.1502 129.482 85.4961 129.156C84.9572 129.064 84.4134 128.975 83.8811 128.88C80.7558 128.328 77.6569 127.602 74.4636 127.395C71.048 127.171 67.6573 127.032 64.255 126.665C60.7101 126.282 57.0725 126.135 53.7315 124.957C51.7684 124.266 49.3908 123.542 49.1669 121.514C49.0973 120.884 49.2765 120.327 49.5899 119.831C50.8765 119.363 52.2261 119.052 53.123 118.871C56.6696 118.155 60.3206 117.985 63.9334 117.607C66.9925 117.287 69.9852 116.5 73.0476 116.276C76.0387 116.057 79.0464 115.934 82.0408 115.714C88.4226 115.248 94.8192 114.795 101.208 114.358C105.102 114.091 109.033 113.723 112.96 113.421C120.553 113.19 128.656 113.043 137.213 113C137.268 114.008 137.356 115.009 137.507 115.992ZM155.851 131.717L155.752 131.542C157.758 131.515 159.764 131.482 161.771 131.442C159.797 131.553 157.824 131.639 155.851 131.717ZM135.751 131.603L135.792 131.784C135.346 131.721 134.9 131.658 134.454 131.593C134.886 131.598 135.32 131.6 135.751 131.603ZM195.18 114.795C201.58 115.145 208.013 115.959 214.38 116.523C217.215 116.775 220.133 117.191 223.002 117.256C223.532 117.267 224.079 117.259 224.61 117.249C227.943 117.742 230.778 118.259 233.049 118.791C234.591 119.256 236.067 119.766 236.979 120.972C237.194 121.247 237.327 121.512 237.41 121.769L237.227 122.031C237.277 122.286 237.261 122.537 237.211 122.779L237.062 123.158L236.995 123.253C236.896 123.396 236.763 123.525 236.597 123.634L236.382 123.78C234.641 124.558 232.834 125.115 231.027 125.486L231.043 125.561C229.037 125.967 226.682 126.363 224.046 126.745C221.344 126.969 218.724 126.997 215.988 127.06C212.523 127.139 209.091 127.668 205.659 128.026C199.076 128.716 192.51 129.525 185.862 129.752C182.28 129.874 178.732 130.124 175.184 130.409C168.519 130.631 161.406 130.789 153.94 130.867C152.414 130.746 150.929 130.552 149.4 130.497C149.108 130.484 148.816 130.477 148.533 130.472L148.49 130.479L148.516 130.242C148.468 124.492 148.466 118.746 148.453 113C162.367 113.074 175.118 113.416 186.359 113.956C189.31 114.286 192.245 114.635 195.18 114.795ZM162.5 209.343C157.426 210.344 152.449 210.033 147.319 209.965C141.809 209.893 136.293 210.295 130.818 209.481C130.654 209.457 130.492 209.433 130.329 209.409C128.945 209.132 127.554 208.874 126.166 208.778C123.042 208.288 119.94 207.735 116.859 206.899C112.436 205.7 107.904 205.001 103.506 203.696C100.35 202.759 97.4339 201.487 94.5406 200.099C93.6934 199.625 92.8461 199.148 91.9789 198.715C87.8024 196.629 83.9408 193.641 80.3379 190.647C76.551 187.497 72.7293 184.099 70.0267 179.941C68.6091 177.759 67.775 175.345 66.5746 173.057C65.1603 170.359 63.7526 167.755 62.4793 164.977C60.289 160.192 57.55 155.779 54.8972 151.247C53.9073 149.553 52.9092 147.888 51.9592 146.208C50.3841 142.378 49.1124 138.507 48.0346 134.423C47.2703 131.525 46.6501 128.433 46.3102 125.321C50.9925 127.799 56.7491 129.449 62.141 130.475C69.2009 131.818 76.6936 131.749 83.9077 132.113C91.5927 132.503 99.1948 133.133 106.895 133.345C117.052 133.627 127.116 134.126 137.21 134.16C139.374 134.347 141.542 134.44 143.729 134.415C147.367 134.37 150.899 134.867 154.515 135.018C158.537 135.184 162.566 134.629 166.595 134.693C173.708 134.809 180.639 133.574 187.686 133.006C195.843 132.346 203.934 131.155 212.125 130.593C215.872 130.338 219.702 129.892 223.433 129.5C225.887 129.243 228.324 128.623 230.745 128.204L231.126 128.149C231.855 128.031 232.568 127.924 233.298 127.862C233.613 127.836 233.862 127.711 234.044 127.552L234.459 127.44C233.729 135.095 230.43 143.761 227.445 150.713C224.709 157.093 221.31 163.447 217.712 169.388C213.916 175.65 209.903 182.246 204.282 187.047C198.131 192.308 190.604 195.805 184.187 200.731C183.856 200.985 183.64 201.295 183.54 201.62C180.539 202.943 177.456 203.905 174.322 205.105C172.349 205.864 170.359 206.441 168.369 207.183C166.645 207.828 164.772 208.043 163.23 209.091L163.014 209.238C162.848 209.273 162.666 209.308 162.5 209.343ZM81.6627 245.576L81.2416 245.568C81.4007 245.566 81.5583 245.568 81.7174 245.568L81.6627 245.576ZM81.6627 446.669L81.24 446.659C81.3991 446.659 81.5583 446.66 81.7174 446.659L81.6627 446.669ZM287.383 457.366C287.416 455.718 287.416 453.866 287.101 452.123C286.836 447.348 284.581 443.639 277.567 443.099C275.412 442.931 273.24 442.789 271.051 442.671C271.118 438.358 271.051 434.048 270.173 429.805C268.714 422.773 268.697 416.139 268.863 408.995C269.045 401.565 269.824 394.157 269.924 386.734C270.04 379.372 269.891 371.997 269.907 364.636C269.941 334.809 270.023 304.965 269.609 275.142C273.92 275.059 278.197 274.663 282.243 273.668C284.481 273.117 286.554 270.992 286.952 268.802C287.565 265.311 287.897 261.743 287.383 258.668C287.383 257.857 287.366 257.053 287.383 256.274C287.416 254.625 287.416 252.775 287.101 251.031C286.836 246.256 284.581 242.547 277.567 242.006C269.111 241.355 260.258 241.03 251.802 241.441C246.513 241.698 241.207 241.819 235.901 241.867C227.246 241.635 218.608 241.083 209.953 240.894C209.77 237.944 209.207 234.993 207.681 232.438C205.609 228.972 201.663 228.079 197.882 227.712C196.871 227.616 195.876 227.558 194.865 227.502L194.666 227.178C191.93 224.337 189.725 220.427 188.398 216.749C187.603 214.494 187.056 212.225 186.757 209.845C186.525 208.123 186.608 206.395 186.144 204.745C190.106 202.918 193.887 200.749 197.352 198.14C200.784 195.558 203.967 193.205 206.919 190.121C207.516 189.722 208.112 189.327 208.709 188.913C209.704 187.651 210.749 186.452 211.909 185.323C214.595 180.916 218.127 177.069 221.526 173.18L221.924 172.885C222.073 172.654 222.222 172.429 222.388 172.198C222.786 171.197 223.234 170.208 223.814 169.28C225.837 166.004 227.611 162.625 229.402 159.216C230.662 155.13 232.104 151.103 233.497 147.059L233.514 147.013C233.746 146.346 233.961 145.675 234.193 145.006L234.21 144.917C234.475 144.146 234.74 143.375 234.989 142.601L235.006 142.476C235.735 140.432 236.564 138.427 237.161 136.335C237.891 133.836 238.587 131.454 239.167 129.059C239.366 127.778 239.433 126.402 239.366 125.037V125.035L239.35 124.971C239.333 124.566 239.284 124.162 239.234 123.762V123.74L239.201 123.479L239.167 123.276L239.134 123.165L239.101 122.926L239.084 122.9C239.051 122.712 239.002 122.528 238.952 122.346L238.869 122.024L238.753 121.612L238.653 121.358L238.587 121.147L238.554 121.076C238.438 120.754 238.289 120.444 238.139 120.143L238.007 119.882L237.99 119.859V119.866L237.841 119.653L237.775 119.517L237.742 119.508C237.526 119.178 237.327 118.841 237.062 118.548C236.912 118.385 236.83 118.214 236.714 118.045C236.1 117.674 235.453 117.364 234.823 117.153C232.27 116.293 229.451 115.389 226.666 115.215C222.753 114.973 218.857 114.926 214.944 114.576C207.715 113.93 200.469 113.089 193.207 112.72C189.426 112.527 185.696 112.109 181.949 111.68C178.367 111.267 174.803 111.287 171.221 110.934C164.158 110.237 156.763 110.693 149.665 110.743C149.257 110.746 148.853 110.73 148.447 110.722L148.445 110.582C148.516 108.657 148.586 106.732 148.636 104.806C148.729 101.151 148.966 97.5054 148.294 93.9373C148.272 92.5794 148.254 91.2199 148.228 89.8619C150.395 89.8304 152.564 89.8785 154.729 89.8868C158.206 89.9017 161.638 89.4358 165.12 89.4839C171.404 89.5701 177.804 87.9535 183.706 85.8976C186.061 85.0752 188.697 84.15 190.587 82.4423C191.184 81.8984 191.615 81.3114 192.079 80.6582C193.174 79.1195 194.235 77.7798 195.429 76.3191C197.368 73.9647 198.977 71.3683 201.198 69.2676C204.001 66.6213 206.819 65.983 210.5 65.469C223.615 63.6435 236.531 60.8348 249.812 60.5944C252.349 60.5612 254.902 60.5429 257.439 60.5661C263.69 60.6242 269.344 58.1869 275.545 58.1056C277.07 58.0857 279.126 57.8586 280.353 56.8339C280.85 56.4211 281.116 55.9237 281.265 55.3832C282.558 53.551 281.994 50.7457 281.53 48.7229C281.431 48.2951 281.132 48.0431 280.767 47.9486C282.591 45.6174 283.686 42.6975 283.686 39.5224V36.2595C283.951 34.5368 284.166 32.8107 284.266 31.1063C284.531 25.9432 284.697 20.6093 284.017 15.4776C283.934 14.8526 283.802 14.2557 283.669 13.6688C283.619 6.12475 277.484 -6.367e-06 269.924 -6.367e-06C262.33 -6.367e-06 256.162 6.1728 256.162 13.7599V14.8277C256.129 14.9819 256.096 15.1411 256.063 15.2936C255.665 17.2634 255.317 18.9065 255.4 20.9458C255.499 23.1295 255.797 25.3446 255.831 27.5067C255.864 29.3024 255.996 31.0615 256.162 32.8074V39.5224C256.162 43.1502 257.588 46.4447 259.893 48.9069C245.683 49.4026 231.441 50.4472 217.447 52.4998C213.335 53.1033 209.207 53.7799 205.426 55.5473C201.198 57.5105 197.584 60.4435 193.97 63.3284C190.057 66.4605 186.094 69.934 181.551 72.1508C178.865 73.4706 176.593 73.275 173.725 73.3131C171.138 73.3463 168.552 73.7077 165.982 74.0012C160.195 74.6611 154.384 74.8949 148.584 75.3757C148.422 75.389 148.261 75.4006 148.098 75.4138C148.098 73.328 148.098 71.2422 148.097 69.1564C148.095 66.4389 148.098 63.7214 148.092 61.0039L148.1 60.9028H149.566C152.29 60.9028 154.52 58.6727 154.52 55.9486V53.8594C155.536 51.7969 156.183 49.5403 156.233 47.3003C156.332 42.5533 156.415 37.5842 156.001 32.8555C155.785 30.5027 155.337 28.0787 154.52 25.8055V23.1427C154.52 20.4186 152.29 18.1885 149.566 18.1885H148.513C147.337 17.5983 146.042 17.2153 144.641 17.081C142.67 16.892 140.992 17.2086 139.124 17.8055C138.825 17.9017 138.565 18.0509 138.298 18.1885H136.701C133.977 18.1885 131.747 20.4186 131.747 23.1427V26.1189C129.217 32.0928 129.693 39.3036 129.726 45.6737C129.742 48.9185 130.185 52.46 131.747 55.4014V55.9486C131.747 58.6727 133.977 60.9028 136.701 60.9028H137.532C137.562 61.9075 137.613 62.8194 137.626 63.4843C137.651 64.7079 137.663 65.9299 137.674 67.1552C137.674 70.206 137.674 73.2584 137.674 76.3092C135.797 76.5546 133.911 76.8397 132.05 76.7684C131.379 76.7419 131.311 77.5942 131.762 77.9075C130.588 78.8675 130.767 81.1456 131.082 82.4173L131.351 82.7639C131.276 84.1981 131.284 85.6339 131.71 86.9305C131.782 87.5539 131.908 88.1625 132.153 88.7295C132.77 90.1504 133.818 90.676 135.308 90.754C135.574 90.7689 135.837 90.7473 136.101 90.7506C136.509 90.8617 136.918 90.9463 137.331 91.0126C137.164 95.6534 137.112 100.301 137.147 104.953C137.16 106.822 137.114 108.74 137.136 110.654C134.395 110.718 131.652 110.687 128.913 110.838C124.873 111.058 120.85 110.899 116.811 111.227C112.394 111.587 107.997 111.937 103.567 112.206C94.99 112.726 86.4413 113.499 77.8659 114.029C74.0757 114.265 70.5738 114.663 66.8433 115.241C62.7861 115.868 58.6311 115.959 54.5706 116.583C54.2522 116.631 53.9023 116.694 53.5392 116.762L53.4762 116.601L53.3271 116.654C52.4798 116.831 51.7204 117.07 51.0091 117.342L50.9841 117.347C50.5348 117.518 50.112 117.705 49.7124 117.909C49.5002 118.019 49.3113 118.143 49.1124 118.261C48.8421 118.421 48.5801 118.587 48.3331 118.763C48.1739 118.879 48.0163 118.997 47.8654 119.12L47.5769 119.347L47.5753 119.345C47.4178 119.483 47.2785 119.632 47.1342 119.776L47.0712 119.803L46.932 119.975L46.9171 119.988L46.8541 120.046L46.8523 120.051L46.8242 120.081L46.8276 120.086C46.559 120.38 46.3119 120.686 46.0881 121.006C45.9654 121.18 45.8593 121.363 45.7498 121.545L45.6056 121.782L45.4448 122.049L45.2955 122.368L45.1198 122.688L45.1379 122.709L44.9572 123.109L44.8279 123.482C44.7698 123.646 44.7119 123.808 44.6588 123.976L44.6572 123.941L44.6158 124.107L44.5776 124.238L44.5677 124.263L44.5709 124.264L44.4798 124.642C43.6773 127.874 43.9923 131.722 44.8677 135.663C45.8459 139.183 47.1758 142.693 48.8637 145.829C49.2898 146.621 49.7456 147.399 50.1966 148.178C53.8409 156.772 58.0408 165.122 62.7513 173.16C67.8481 181.856 73.5715 189.38 81.5997 195.614C85.2474 198.446 89.6113 200.492 93.7531 202.507C94.3334 202.789 94.9319 203.031 95.5205 203.291C96.9879 204.031 98.4703 204.742 99.9658 205.428L99.9292 205.745C100.233 209.008 100.957 212.075 100.878 215.408C100.775 219.656 98.8399 223.192 98.1883 227.248C97.9363 227.266 97.6827 227.273 97.4323 227.293C93.2541 227.619 87.7941 227.546 84.7649 231.032C82.5382 233.595 82.6278 238.405 83.0605 241.787C68.2079 241.752 53.3402 242.351 38.597 244.041C32.8635 244.697 27.1799 244.692 21.4464 245.075C17.0808 245.367 12.1663 246.334 8.4341 249.21C6.32342 250.835 5.02523 253.002 4.25259 255.451C2.3873 258.731 1.65777 262.576 2.51166 266.293C2.24471 267.929 2.30278 269.652 2.71065 271.204C2.51998 273.073 3.51805 274.736 4.97215 275.919C5.09816 276.085 5.25568 276.2 5.43475 276.266C6.10459 276.737 6.84072 277.12 7.59844 277.37C9.83513 278.11 12.3588 277.899 14.6817 278.05C17.0178 278.203 19.3043 278.287 21.6172 278.3C23.0978 279.713 21.8476 285.848 21.7531 287.569C21.4679 292.865 21.657 298.22 21.6388 303.526C21.5957 315.837 21.5807 328.149 21.5691 340.462C21.5542 352.826 21.541 365.19 21.541 377.555C21.5393 389.813 22.0051 402.17 21.4977 414.416C21.2689 419.966 22.3103 425.739 23.2487 431.224C23.7643 434.237 24.5585 437.239 24.6894 440.3C24.7707 442.198 24.6862 444.099 24.6017 445.999C23.5505 446.048 22.5009 446.096 21.4464 446.168C17.0808 446.46 12.1663 447.426 8.4341 450.303C6.32342 451.928 5.02523 454.095 4.25259 456.542C2.3873 459.822 1.65777 463.668 2.51166 467.386C2.24471 469.022 2.30278 470.745 2.71065 472.295C2.51998 474.165 3.51805 475.828 4.97215 477.012C5.09816 477.178 5.25568 477.292 5.43475 477.359C6.10459 477.83 6.84072 478.213 7.59844 478.461C9.83513 479.201 12.3588 478.992 14.6817 479.143C17.6628 479.337 20.5477 479.471 23.5338 479.408C26.8317 479.338 30.0433 479.03 33.1754 478.372C40.033 477.879 46.8723 476.976 53.7432 476.652C63.9384 476.173 74.1054 475.293 84.3222 475.293C94.7811 475.291 105.24 475.294 115.699 475.294C137.208 475.293 158.72 475.293 180.224 475.293C190.72 475.293 201.182 475.384 211.644 474.411C212.738 474.31 213.816 474.174 214.91 474.056C220.879 474.041 226.848 474.187 232.834 474.575C241.091 475.11 249.331 475.319 257.555 475.856C265.729 476.389 274.417 476.686 282.243 474.761C284.481 474.208 286.554 472.083 286.952 469.894C287.565 466.404 287.897 462.836 287.383 459.76C287.383 458.95 287.366 458.145 287.383 457.366Z" fill="#4D403D"/>
<path d="M72.5849 163.731C68.8411 156.704 66.515 149.024 63.766 141.583C63.2619 140.216 61.1031 140.87 61.5922 142.259C64.3015 149.959 66.6028 157.856 70.2836 165.168C73.9114 172.374 78.9353 179.275 84.3123 185.275C85.6802 186.799 87.8405 184.477 86.4909 182.965C81.2863 177.139 76.2707 170.648 72.5849 163.731Z" fill="#4D403D"/>
<path d="M99.5427 183.302C98.5545 182.653 97.4387 182.329 96.4124 181.758C95.1722 181.07 94.1426 180.077 93.1909 179.037C91.4184 177.101 89.6642 174.672 89.2845 172.017C89.0872 170.638 86.9186 170.686 87.0827 172.108C87.4193 175.003 88.8833 177.517 90.6541 179.783C91.4566 180.811 92.2889 181.846 93.2539 182.728C94.6532 184.006 96.3576 184.537 97.8499 185.643C99.5361 186.89 101.312 184.466 99.5427 183.302Z" fill="#4D403D"/>
<path d="M41.6959 336.603C37.7315 322.046 33.8037 307.876 31.6831 292.903C31.5073 291.664 29.622 291.684 29.6983 292.986C30.5936 307.982 34.9194 323.056 39.1623 337.393C39.6482 339.032 42.1435 338.25 41.6959 336.603Z" fill="#4D403D"/>
<path d="M45.9755 330.169C46.6055 331.449 48.5338 330.263 47.8673 328.986C45.042 323.575 43.4852 317.382 41.343 311.672C40.9136 310.528 39.0996 311.075 39.5158 312.24C41.6431 318.186 43.185 324.497 45.9755 330.169Z" fill="#4D403D"/>
<path d="M240.527 313.709C241.157 315.12 243.478 314.431 242.848 312.986C237.725 301.19 230.943 289.898 221.94 280.65C221.061 279.75 219.801 281.142 220.614 282.053C229.103 291.47 235.403 302.156 240.527 313.709Z" fill="#4D403D"/>
<path d="M42.0489 362.142C37.8806 352.847 33.331 342.922 31.7691 332.778C31.5619 331.425 29.4114 331.488 29.6121 332.869C31.1259 343.249 35.5694 353.318 39.7377 362.863C40.3562 364.279 42.6839 363.56 42.0489 362.142Z" fill="#4D403D"/>
</svg>
