<svg width="230" height="230" viewBox="0 0 230 230" fill="none" xmlns="http://www.w3.org/2000/svg">
<path d="M143.075 96.6595C141.783 79.0915 145.694 49.0501 122.883 44.4715C120.99 43.7568 118.914 43.2581 116.634 43.0355C115.591 42.9328 114.54 42.8675 113.491 42.7968C94.6818 39.6995 75.4831 37.9034 56.6565 35.3034C47.6165 34.0554 36.4338 40.9928 40.2538 51.7048C42.1978 57.1515 43.9191 62.6407 45.4365 68.1648C44.9258 70.3074 44.8791 72.6074 45.3365 74.8888C45.5911 76.1554 45.8445 77.4208 46.0992 78.6875C46.3205 83.0488 46.9032 87.3741 47.9072 91.6474C47.4098 100.202 47.6818 108.758 48.6791 117.241C43.2524 140.434 48.7792 171.861 71.3325 177.949C81.7872 186.554 95.3458 192.341 108.728 190.854C114.536 190.209 119.854 188.281 124.569 185.413C143.234 187.39 150.619 162.79 151.01 147.529C151.456 130.091 144.336 113.839 143.075 96.6595Z" fill="#F87171"/>
<path d="M219.03 81.5715C217.792 91.1021 214.656 99.3141 209.703 105.978C204.307 113.242 196.49 118.225 188.93 123.043L188.806 123.123C183.034 126.803 175.354 132.389 175.31 138.394C175.288 141.258 176.963 143.821 180.287 146.011C181.623 146.89 181.846 148.065 181.798 148.895C181.722 150.205 180.902 151.502 179.808 152.051C178.907 152.501 177.927 152.403 176.962 151.767C172.476 148.814 169.538 144.399 168.898 139.655C168.294 135.178 169.762 130.659 173.03 126.935C177.203 122.181 182.62 118.73 187.86 115.394C194.992 110.854 202.364 106.158 206.972 98.0647C210.736 91.4527 212.804 83.2568 212.952 74.3621C213.083 66.4661 211.898 58.5915 202.423 54.4795C199.387 53.1595 196.319 52.5088 193.282 52.5088C187.336 52.5088 181.519 55.0101 176.324 59.9101C173.899 62.1981 171.068 65.3168 170.703 69.1608C170.454 71.7808 171.122 74.1154 172.583 75.7341C173.891 77.1834 175.739 77.9581 177.927 77.9741C178.974 77.9808 179.798 78.9981 179.99 79.9795C180.111 80.5941 180.052 81.4128 179.091 81.8128C175.534 83.2901 173.451 83.6901 170.518 82.1568C167.519 80.5888 165.548 78.2168 164.66 75.1075C162.174 66.4008 167.564 59.2915 170.999 55.8288C178.107 48.6661 186.146 45.3141 194.856 45.8754C201.89 46.3261 211.403 49.7954 215.671 56.3474C219.392 62.0568 220.491 70.3088 219.03 81.5715ZM153.392 179.862L153.33 179.829C152.402 179.266 151.579 180.21 151.707 181.05C150.292 181.995 148.84 182.885 147.364 183.734C147.27 183.649 147.163 183.577 147.04 183.534C146.518 183.851 145.979 184.141 145.427 184.401L145.382 184.569L145.342 184.878C144.828 185.162 144.315 185.447 143.802 185.727C140.332 187.61 136.792 189.766 133.139 191.243C126.994 193.727 119.552 194.323 113.016 194.141C105.751 193.937 98.2938 194.147 91.2378 192.166C84.0764 190.155 77.0271 187.985 70.2324 184.907C63.9924 182.081 58.1524 178.778 54.0764 173.042C50.2551 167.663 46.8751 161.149 45.1897 154.738C43.9284 149.947 44.0164 144.769 44.4271 139.683C45.1471 140.093 45.8724 140.486 46.6057 140.851C48.4351 142.525 51.1978 143.594 53.4711 143.643C59.4951 145.622 65.8258 146.638 72.2271 147.563C73.7991 147.79 75.3791 147.954 76.9617 148.095C80.8484 148.83 84.7551 149.317 88.6858 149.326C89.0831 149.327 89.3564 149.154 89.5284 148.911C94.4537 149.238 99.3777 149.657 104.316 149.63C115.524 149.571 126.615 149.282 137.768 148.042C141.855 147.589 145.906 146.915 149.97 146.306C151.051 146.215 152.135 146.089 153.226 145.909C153.363 145.886 153.49 145.838 153.611 145.779C156.118 145.438 158.604 145.035 161.079 144.51C163.04 144.095 164.863 143.351 166.742 142.771C167.551 156.583 165.01 171.258 153.392 179.862ZM192.086 207.826C192.095 207.695 192.09 207.566 192.063 207.438C192.335 207.355 192.603 207.267 192.872 207.181C192.608 207.398 192.346 207.613 192.086 207.826ZM183.867 209.762L183.772 209.795L183.596 209.73L183.39 209.711C183.535 209.677 183.682 209.643 183.828 209.607L183.867 209.762ZM144.215 220.687L144.37 220.673C144.88 220.622 145.408 220.578 145.931 220.533C145.359 220.599 144.787 220.662 144.215 220.726V220.687ZM86.8084 222.203C87.3004 222.165 87.7951 222.121 88.2884 222.078L88.3991 222.337C87.8351 222.313 87.2698 222.289 86.7044 222.251L86.8084 222.203ZM60.4578 215.738C61.9364 216.031 63.4231 216.301 64.9151 216.547C64.4084 216.507 63.9018 216.469 63.3938 216.429C63.0658 216.353 62.7484 216.281 62.4457 216.215C61.7804 216.071 61.1191 215.898 60.4578 215.738ZM40.8751 214.343C39.8791 213.937 38.9137 213.479 37.9671 212.989C38.9311 213.451 39.9044 213.897 40.8751 214.343ZM37.4977 210.239L37.4298 210.205C37.1084 210.033 36.8044 209.837 36.4897 209.654L36.6151 209.691C36.9724 209.791 37.3284 209.891 37.6844 209.991L37.4977 210.239ZM96.1911 220.359L96.1284 220.193C97.0804 220.325 98.0351 220.442 98.9924 220.547C98.6217 220.549 98.2511 220.546 97.8804 220.55C97.3138 220.493 96.7551 220.422 96.1911 220.359ZM49.6778 200.387C54.2791 204.346 60.5911 206.07 66.3711 207.435C73.2244 209.054 80.2631 209.975 87.2604 210.693C94.1591 211.399 101.1 211.823 108.036 211.815C115.278 211.807 122.416 210.911 129.604 210.147C136.642 209.401 143.578 208.397 150.488 206.835C155.967 205.598 162.79 204.301 167.408 200.874C171.536 197.814 172.171 192.121 169.238 188.009C167.612 185.73 165.484 184.165 162.931 183.082C161.31 182.395 159.644 181.795 157.987 181.201C157.407 180.991 156.715 180.847 156.016 180.698C156.808 180.055 157.583 179.393 158.319 178.685C159.852 177.211 161.148 175.587 162.288 173.869C162.414 174.007 162.596 174.109 162.84 174.125C167.419 174.439 171.834 175.275 176.468 175.37C177.544 175.393 178.642 175.483 179.746 175.61C183.508 176.507 187.202 177.593 190.71 178.827C193.356 179.759 196.094 180.717 198.719 181.883C200.652 182.981 202.448 184.287 203.912 185.981C205.687 188.033 207.23 190.354 207.448 193.139C207.548 194.418 207.283 195.421 206.794 196.289C206.222 196.975 205.627 197.665 205.011 198.342C204.614 198.683 204.191 199.017 203.739 199.354C203.532 199.507 203.42 199.699 203.35 199.898C196.019 204.725 186.547 206.622 178.191 208.583C177.236 208.807 176.28 209.014 175.323 209.222C173.616 209.27 171.779 209.499 170.294 210.253C162.535 211.729 154.699 212.77 146.851 213.667C136.347 214.869 125.824 215.258 115.268 215.703C104.702 216.151 94.1417 216.711 83.5671 216.17C72.9804 215.627 62.5084 214.313 52.2404 211.642C44.8764 209.725 37.1164 207.981 29.8764 205.294C29.4124 204.975 28.9511 204.653 28.4804 204.343C25.3911 202.31 22.1577 200.483 19.0951 198.387C16.7297 196.769 12.9391 193.679 11.6977 190.483C11.8511 189.238 12.2178 188.014 12.8084 186.897C15.2311 182.31 20.7417 181.502 25.0644 179.958C27.0724 179.241 28.9551 178.694 31.0484 178.221C33.4057 177.689 35.6684 176.771 38.0351 176.35C42.4511 175.563 47.0391 174.842 51.3444 173.582C51.4884 173.539 51.5938 173.459 51.6831 173.365C54.0818 176.863 56.8978 179.953 60.5884 182.375C61.3804 182.895 62.1951 183.391 63.0204 183.873C54.8151 183.511 41.3444 193.218 49.6778 200.387ZM138.799 192.903C135.658 194.81 132.244 196.346 128.818 197.659C121.652 200.405 112.99 200.123 105.418 200.006C101.342 199.942 97.2324 200.038 93.1911 199.413C89.6124 198.858 86.1604 197.802 82.7311 196.667C79.6844 195.659 76.5578 194.078 73.7884 192.425C71.1204 190.831 69.6271 188.499 67.7044 186.349C71.4018 188.125 75.2657 189.617 79.0457 190.897C85.871 193.206 93.0057 195.434 100.21 195.942C107.132 196.43 114.688 197.089 121.58 196.098C124.999 195.606 128.646 195.027 131.96 194.034C135.234 193.051 138.228 191.217 141.247 189.635C142.116 189.179 142.995 188.722 143.872 188.259C142.476 190.221 140.39 191.939 138.799 192.903ZM153.723 182.43C154.803 182.735 155.982 182.893 157 183.254C159.584 184.171 162.54 184.989 164.759 186.653C169.438 190.159 170.444 196.631 164.828 199.813C160.515 202.255 155.122 203.413 150.336 204.533C144.53 205.891 138.631 206.918 132.702 207.535C121.498 208.702 110.544 209.859 99.2578 209.335C88.1044 208.817 76.7164 207.67 65.8578 204.987C62.8964 204.255 59.9191 203.414 57.1111 202.217C54.6444 201.166 50.8191 199.507 49.5378 196.994C47.9191 193.818 52.7578 189.341 55.1831 188.026C57.9151 186.546 61.5897 185.166 64.7177 185.491C65.0311 185.525 65.2697 185.387 65.4004 185.19C65.3631 185.35 65.3857 185.529 65.5284 185.69C66.9217 187.279 67.6364 189.29 68.9604 190.925C70.0218 192.234 71.3858 193.257 72.7964 194.158C76.0258 196.225 79.4977 197.898 83.1231 199.099C91.5604 201.893 99.7137 202.255 108.543 202.353C117.402 202.453 125.888 201.523 134.05 197.982C138.852 195.899 145.711 192.023 147.318 186.401C149.518 185.181 151.675 183.878 153.723 182.43ZM42.3884 61.1194C40.9898 53.0061 40.7551 44.7354 39.3457 36.6328C38.7444 33.1754 37.7178 29.9915 36.2964 26.8021C35.4951 25.0048 34.4071 22.8154 33.6057 20.5661L33.6524 20.5728C39.8324 23.6261 52.6857 25.9035 68.0751 27.2435C68.8551 27.4075 69.6364 27.5648 70.4298 27.6941C73.5218 28.1954 76.7844 28.1928 80.0151 28.0688C86.9617 28.4328 94.1697 28.6248 101.334 28.6248C106.85 28.6248 112.395 28.5128 117.827 28.2941C118.47 28.3141 119.114 28.3328 119.756 28.3501C124.864 28.4941 130.17 28.3448 135.234 27.6314C138.09 27.2287 140.843 26.5141 143.744 26.4688C146.822 26.4221 149.698 26.2568 152.746 25.7901C153.052 25.7435 153.36 25.7021 153.668 25.6608C153.878 25.6834 154.074 25.6594 154.248 25.5781C155.88 25.3581 157.522 25.1435 159.098 24.6875C161.639 23.9515 164.891 23.5434 167.164 22.1941C167.791 21.8208 168.574 21.2808 169.33 20.6394L169.55 20.5928C169.907 20.4355 170.226 20.2381 170.512 20.0168C169.058 25.5848 166.627 30.8595 165.484 36.5208C164.064 43.5608 163.782 50.8821 162.698 57.9875C162.202 61.2448 161.848 64.5301 161.676 67.8208C161.664 68.0728 161.671 68.3221 161.663 68.5728C161.502 70.0434 161.506 71.5195 161.695 72.9875C161.764 74.8568 161.855 76.7221 161.827 78.6008C161.776 81.9341 161.883 85.1474 162.155 88.4674C162.48 92.4474 161.928 96.3861 162.087 100.362C162.271 104.982 162.744 109.626 163.23 114.258C162.711 114.387 162.199 114.579 161.664 114.674C159.224 115.107 156.603 115.119 154.126 115.361C149.831 115.779 145.55 116.307 141.263 116.805C140.866 116.739 140.496 116.691 140.183 116.671C139.888 116.653 139.622 116.802 139.423 117.018C139.196 117.043 138.968 117.073 138.742 117.097C128.643 118.218 118.718 119.114 108.542 119.285C98.0804 119.461 87.7097 118.97 77.279 118.213C71.7924 117.814 66.3097 117.319 60.8671 116.514C56.0657 115.803 50.7044 115.177 46.1644 113.291C46.1764 112.401 46.1978 111.511 46.1991 110.619C46.2204 102.201 45.4258 93.7461 44.9084 85.3461C44.4058 77.1915 43.7778 69.1714 42.3884 61.1194ZM34.1831 19.5861L34.1604 19.5488C33.9938 19.3635 33.8497 19.1714 33.7097 18.9808C34.0004 19.2741 34.3191 19.5501 34.6551 19.8114C34.4898 19.7354 34.3364 19.6608 34.1831 19.5861ZM119.559 26.4501C120.075 26.4848 120.583 26.5528 121.095 26.5941C120.54 26.5795 119.986 26.5661 119.434 26.5288L119.559 26.4501ZM149.463 24.2021L149.707 24.2741L149.462 24.3008L149.463 24.2021ZM130.088 23.5114L130.114 23.5448L130.079 23.5568L129.999 23.5021L130.088 23.5114ZM52.4738 23.2608C52.7084 23.2021 52.9404 23.1488 53.1804 23.1021L53.2364 23.3821C52.9817 23.3448 52.7271 23.3021 52.4738 23.2608ZM84.5591 5.81813C84.9431 5.81947 85.327 5.81679 85.7097 5.83011C90.3924 5.98344 95.0804 6.64615 99.7644 6.59015C104.391 6.53548 108.999 6.24208 113.63 6.23141C123.194 6.21275 132.63 7.34346 142.163 7.8768C144.986 8.03413 147.851 8.73143 150.639 9.20609C153.292 9.6581 155.944 9.99681 158.554 10.6595C160.995 11.2808 163.139 12.2328 165.454 13.2368C166.607 13.7368 169.284 15.1621 170.158 16.5955C169.714 18.3235 166.05 20.5901 165.098 20.9288C164.634 21.0928 164.154 21.2408 163.67 21.3834C163.503 21.4341 163.324 21.4821 163.152 21.5328C161.971 21.8621 160.763 22.1541 159.583 22.4554C157.972 22.8314 156.226 23.1941 154.327 23.5408C150.635 21.8475 146.139 21.2502 142.23 20.1621C137.912 18.9595 133.303 19.0768 128.864 18.7634C124.419 18.4501 120.031 17.7008 115.575 17.4515C110.659 17.1755 105.78 17.0448 100.854 17.1795C90.8951 17.4528 80.7671 17.7341 70.8751 18.9128C66.4231 19.4435 61.9751 19.4301 57.5537 20.2795C55.6097 20.6528 51.5244 20.9848 49.6084 22.6994C49.4511 22.6621 49.2951 22.6341 49.1391 22.5955C46.5031 21.9395 43.7591 21.8128 41.1044 21.2288C38.6018 20.6768 33.6297 18.7754 33.1031 15.6674C33.3844 15.1448 33.8778 14.6701 34.6964 14.3008C35.4391 13.9661 36.2657 13.7794 37.0431 13.5314C39.3271 12.8021 41.6924 12.3715 44.0097 11.7515C48.3391 10.5928 52.5871 9.21944 56.9778 8.31143C61.8111 7.31276 66.7671 7.1301 71.6804 6.77809C74.3644 6.58476 77.071 6.25145 79.7764 6.03012C81.339 5.95145 82.9377 5.8808 84.5591 5.81813ZM77.9551 145.766C78.7378 145.85 79.5204 145.934 80.3044 146.014C80.8884 146.118 81.4764 146.205 82.0671 146.277C81.3204 146.234 80.5764 146.178 79.8311 146.126C79.2044 146.01 78.5791 145.895 77.9551 145.766ZM44.6498 137.153C44.6671 137.521 44.7271 137.879 44.8364 138.227L44.5604 138.098C44.5898 137.782 44.6191 137.469 44.6498 137.153ZM50.4231 117.134C50.3964 116.987 50.3737 116.838 50.3284 116.702C51.0857 116.899 51.8511 117.075 52.6204 117.235C51.9257 117.167 51.1564 117.114 50.4231 117.134ZM68.5004 119.721C68.1337 119.645 67.7684 119.569 67.4018 119.493C67.8378 119.541 68.2751 119.589 68.7111 119.635L68.5004 119.721ZM80.8191 120.693L80.8537 120.957C79.5591 120.819 78.2751 120.606 76.9951 120.383C78.2697 120.487 79.5444 120.599 80.8191 120.693ZM94.8257 121.595C93.9991 121.507 93.1631 121.421 92.3271 121.338C93.1831 121.373 94.0391 121.406 94.8964 121.433L94.8257 121.595ZM124.986 120.702C124.723 120.738 124.528 120.853 124.367 120.993C124.144 120.994 123.923 120.995 123.7 120.998C123.351 120.947 123.002 120.915 122.652 120.871C123.472 120.814 124.291 120.75 125.11 120.686L124.986 120.702ZM133.14 142.999L133.122 142.85C133.458 142.751 133.798 142.665 134.134 142.562C133.803 142.71 133.471 142.853 133.14 142.999ZM74.6724 137.011C75.0577 137.133 75.4404 137.261 75.8244 137.378C74.8258 137.251 73.8271 137.126 72.8271 137.009C73.4418 137.009 74.0577 137.01 74.6724 137.011ZM45.9257 121.683C45.9284 121.905 45.9324 122.127 45.9524 122.351C45.9204 122.529 45.8831 122.702 45.8537 122.879C45.8751 122.481 45.9057 122.082 45.9257 121.683ZM46.3097 120.253C46.2844 120.422 46.2604 120.591 46.2351 120.759C46.0751 120.919 45.9751 121.129 45.9431 121.357C45.9764 120.637 45.9924 119.917 46.0191 119.197C46.0938 119.547 46.1897 119.899 46.3097 120.253ZM136.888 123.686L136.895 123.843C136.134 123.819 135.37 123.794 134.608 123.767C135.367 123.737 136.128 123.713 136.888 123.686ZM162.07 134.389C162.242 134.607 162.386 134.841 162.508 135.087L162.51 135.103C162.202 135.213 161.832 135.293 161.423 135.403C161.594 135.025 161.8 134.677 162.07 134.389ZM148.151 129.658C148.274 129.639 148.398 129.63 148.52 129.61L148.492 129.777L148.263 129.969L148.151 129.658ZM84.0444 137.021C84.5551 137.113 85.0657 137.206 85.5777 137.294C85.4391 137.303 85.3018 137.315 85.1631 137.325C84.9338 137.341 84.7124 137.345 84.4858 137.357C84.0364 137.247 83.5871 137.133 83.1391 137.019C83.4404 137.021 83.7431 137.019 84.0444 137.021ZM68.5111 132.202C67.7311 132.171 66.9484 132.147 66.1697 132.109C66.9657 132.099 67.7604 132.117 68.5564 132.117L68.5111 132.202ZM161.295 120.111L161.298 120.143C160.988 120.174 160.695 120.319 160.496 120.566L160.391 120.53L160.223 120.229L160.162 120.157C160.547 120.182 160.927 120.173 161.295 120.111ZM92.9071 141.595C91.8711 141.482 90.8364 141.357 89.8018 141.237C90.1098 141.199 90.4177 141.166 90.7257 141.13C91.4524 141.286 92.1791 141.443 92.9071 141.595ZM107.026 140.319C107.252 140.361 107.478 140.386 107.703 140.415C106.06 140.313 104.419 140.227 102.778 140.201L102.47 140.255C102.208 140.213 101.947 140.174 101.687 140.13C101.858 140.122 102.028 140.115 102.199 140.107C103.374 140.047 104.55 139.989 105.726 139.93C105.956 139.953 106.187 139.974 106.419 139.994C106.558 140.146 106.746 140.269 107.026 140.319ZM113.304 129.71C112.688 129.723 112.074 129.738 111.458 129.751C110.086 129.683 108.715 129.617 107.343 129.531L107.183 129.507C105.734 129.289 104.286 129.061 102.838 128.837L103.034 128.854C106.456 129.157 109.88 129.431 113.304 129.71ZM86.5404 127.414C87.8204 127.545 89.1164 127.667 90.4018 127.701L90.4231 127.702L90.3951 128.035C89.1217 127.899 87.8484 127.763 86.5751 127.629L86.5404 127.414ZM57.2151 140.707L57.2111 140.445C57.5738 140.59 57.9377 140.733 58.3031 140.865C57.9377 140.818 57.5777 140.758 57.2151 140.707ZM54.1844 121.451L54.1778 121.35L54.5231 121.423L54.1844 121.451ZM54.8177 126.361L54.7271 126.365C54.5564 126.373 54.4084 126.427 54.2751 126.499C54.2337 126.343 54.1964 126.186 54.1511 126.031C54.3777 126.067 54.6031 126.105 54.8298 126.141L54.8177 126.361ZM58.0977 129.647C59.0124 129.774 59.9537 129.847 60.9591 129.953L61.2177 129.981C60.1937 130.009 59.1697 130.021 58.1457 130.005L58.0977 129.647ZM53.3431 133.521C53.4191 133.831 53.5151 134.139 53.6044 134.447C53.4298 134.467 53.2618 134.501 53.0911 134.529C53.1951 134.201 53.2831 133.866 53.3431 133.521ZM54.8391 128.777L54.8378 128.853C54.8338 128.945 54.8311 129.071 54.8311 129.214C54.8031 129.054 54.7737 128.894 54.7457 128.733L54.8391 128.777ZM166.436 139.987C166.458 140.146 166.503 140.301 166.528 140.458L166.491 140.469C166.4 140.318 166.3 140.174 166.188 140.042L166.434 139.953L166.436 139.987ZM182.428 79.5007C182.04 77.5208 180.376 75.5061 177.946 75.4888C176.451 75.4794 175.268 75.0008 174.427 74.0688C173.439 72.9741 172.995 71.3141 173.176 69.3955C173.463 66.3768 175.92 63.7061 178.03 61.7168C183.038 56.9928 191.164 52.2994 201.434 56.7581C209.118 60.0928 210.603 66.1914 210.468 74.3194C210.328 82.7994 208.372 90.5848 204.814 96.8354C200.51 104.394 193.719 108.719 186.526 113.299C181.14 116.729 175.57 120.274 171.163 125.298C169.398 127.309 168.111 129.533 167.296 131.862C167.236 131.555 167.171 131.254 167.114 130.943C166.364 126.818 166.248 122.51 165.88 118.333C165.502 114.021 165.211 109.698 164.778 105.391C164.347 101.113 164.468 97.0114 164.551 92.7221C164.632 88.5594 163.938 84.4435 164.031 80.2741C164.036 80.0675 164.028 79.8621 164.03 79.6554C165.312 81.5968 167.096 83.1714 169.367 84.3581C173.496 86.5194 176.519 85.5701 180.044 84.1061C181.89 83.3394 182.826 81.5327 182.428 79.5007ZM217.752 54.9901C212.992 47.6835 202.902 43.9021 195.015 43.3968C185.536 42.7834 176.87 46.3861 169.235 54.0795C167.428 55.9021 165.942 57.8061 164.763 59.7595C165.018 57.9368 165.292 56.1154 165.56 54.2861C166.195 49.9434 166.508 45.5621 167.042 41.2075C168.054 32.9288 171.972 25.5635 173.404 17.4048C173.494 16.8981 173.274 16.5074 172.95 16.2661C172.756 13.6835 168.38 11.4595 161.288 9.65147C160.103 9.19147 158.904 8.77414 157.66 8.48213C152.162 7.1888 146.1 5.95143 140.448 5.83943C134.418 5.71942 128.472 4.55814 122.434 4.49014C119.143 4.4528 115.866 4.41147 112.586 4.41547C108.851 4.31413 105.086 4.25812 101.334 4.25812C98.4871 4.25812 95.6351 4.29144 92.7924 4.3501C90.7257 4.25011 88.6564 4.14214 86.5738 4.04613C80.9498 3.78613 75.2444 4.69011 69.6404 5.12477C64.1124 5.55411 58.7138 6.04346 53.3218 7.34079C39.2631 9.4368 29.6911 12.5354 29.6911 16.4421C29.6911 17.3114 30.1857 18.1381 31.0764 18.9248C31.6031 20.8021 32.3404 22.6341 33.0151 24.4461C33.5924 26.0008 34.0258 27.6034 34.5964 29.1608C35.1644 30.7101 36.0711 32.2475 36.3738 33.8595C37.0004 37.2101 36.9177 40.8848 37.2617 44.2968C37.6284 47.9408 38.5418 51.4874 38.8044 55.1501C38.8218 55.4034 38.9231 55.5875 39.0604 55.7181C39.2884 58.8541 39.7858 61.9554 40.3191 65.0528C40.3724 65.4701 40.4271 65.8861 40.4738 66.3088L40.5844 66.6008C41.1751 70.0168 41.7484 73.4355 41.9631 76.9021C41.9751 77.0901 42.0591 77.2235 42.1778 77.3101C42.2164 77.8141 42.2604 78.3141 42.2911 78.8181C42.7791 86.6488 43.2551 94.4808 43.7417 102.31C44.2271 110.126 44.1444 118.19 43.5284 125.998C42.9097 133.829 41.4591 141.893 42.0724 149.762C42.5764 156.235 45.2938 162.194 48.3244 167.814C48.9804 169.031 49.6657 170.21 50.3764 171.361C44.9911 171.378 39.5124 172.679 34.2884 173.878C28.8298 175.13 23.4738 176.638 18.3071 178.813C15.1698 180.133 11.9684 181.555 9.65777 184.046C9.5071 184.107 9.37639 184.223 9.31506 184.419C8.90573 184.899 8.51906 185.405 8.18173 185.969C6.20039 189.277 6.85644 192.417 9.06577 195.087C9.76844 196.569 10.6498 197.863 11.7551 199.046C12.4631 199.934 13.3271 200.753 14.4084 201.466L14.6871 201.581C20.3817 205.805 27.4711 208.065 32.8351 212.743C37.0151 216.389 43.1377 217.731 48.6644 219.201C48.7497 219.415 48.9284 219.607 49.2271 219.739L49.5151 219.843L49.5138 219.847L49.5324 219.85C50.6364 220.274 51.9218 220.441 53.2244 220.529C60.4351 222.77 68.2111 224.227 75.7551 224.119C81.6018 224.035 87.4204 224.535 93.2604 224.682C93.4631 224.961 93.7631 225.167 94.1524 225.162C102.715 225.062 111.324 224.521 119.878 224.078C120.003 224.071 120.131 224.062 120.256 224.055C121.406 224.009 122.556 223.969 123.704 223.91C127.642 223.709 131.57 223.914 135.507 223.835C139.598 223.753 143.502 222.805 147.551 222.405C149.923 222.171 152.302 221.983 154.679 221.791C155.986 221.778 157.296 221.643 158.604 221.449C159.075 221.405 159.548 221.373 160.02 221.325C163.616 220.958 167.788 220.867 171.239 219.79C178.59 217.495 186.32 215.669 192.448 210.723C194.042 209.438 195.324 208.089 197.14 207.094C198.62 206.282 200.098 205.406 201.507 204.477C202.815 203.614 204.054 202.555 205.222 201.406C206.091 200.797 206.935 200.155 207.731 199.454C211.25 196.354 212.527 191.943 210.178 187.747C208.168 184.158 204.339 181.954 200.552 180.253C199.883 179.823 199.21 179.414 198.534 179.046C193.155 176.118 186.819 174.575 180.848 173.467C180.667 173.433 180.483 173.415 180.302 173.387C174.922 172.109 169.454 171.259 164.058 170.911C165.548 168.063 166.671 164.995 167.586 161.823C168.966 157.043 169.264 152.189 169.147 147.302C170.732 149.826 172.912 152.075 175.595 153.843C176.582 154.493 177.624 154.821 178.658 154.821C179.427 154.821 180.191 154.639 180.922 154.271C182.8 153.329 184.15 151.227 184.278 149.041C184.399 146.975 183.443 145.113 181.655 143.935C179.078 142.239 177.78 140.381 177.794 138.413C177.835 133.063 187.098 127.158 190.142 125.217L190.266 125.139C198.014 120.199 206.028 115.09 211.698 107.459C216.906 100.45 220.202 91.8474 221.494 81.8914C222.475 74.3154 223.156 63.2848 217.752 54.9901Z" fill="#4D403D"/>
<path d="M49.5831 73.1006C49.5898 74.3473 51.5004 74.2593 51.5151 73.0193C51.5804 67.79 51.2538 62.5713 50.8965 57.358C50.5565 52.3953 49.7431 47.462 49.7018 42.4833C49.6938 41.5993 48.3791 41.6767 48.3418 42.5406C48.1271 47.5006 48.9205 52.4793 49.1365 57.4313C49.3631 62.6539 49.5525 67.8713 49.5831 73.1006Z" fill="#4D403D"/>
<path d="M58.3538 81.1701C57.3058 76.5714 57.5498 71.9728 57.3245 67.3048C57.2832 66.4315 56.0405 66.5181 55.9925 67.3608C55.7205 72.1554 55.5672 77.0154 56.4912 81.7501C56.7285 82.9688 58.6351 82.4008 58.3538 81.1701Z" fill="#4D403D"/>
</svg>
