<svg width="321" height="321" viewBox="0 0 321 321" fill="none" xmlns="http://www.w3.org/2000/svg">
<path d="M318.967 216.775C318.941 216.266 318.876 215.742 318.758 215.198C318.718 215.042 318.679 214.892 318.64 214.74C318.928 214.222 319.111 213.635 319.098 212.951C319.007 209.358 315.015 204.217 312.279 202.306C310.696 201.207 309.047 200.731 307.384 200.666C307.201 199.888 306.455 199.222 305.539 199.585L301.011 201.382C296.43 202.083 292.202 203.813 288.263 206.54C288.04 206.689 287.91 206.877 287.818 207.078C286.221 207.775 284.638 208.541 283.093 209.422C282.635 209.683 282.413 210.111 282.36 210.557C278.931 212.381 275.581 214.413 272.322 216.488C248.358 227.544 224.76 239.357 201.542 251.898C196.975 253.928 192.407 255.937 187.813 257.924C182.395 258.795 177.087 260.073 171.897 261.765C167.743 258.273 162.809 255.115 157.648 255.479C150.557 255.977 142.857 260.245 136.66 263.447C130.663 266.546 124.932 270.272 120.159 275.147C112.796 282.666 104.675 298.648 117.609 306.049C123.292 309.3 130.548 309.483 136.764 309.18C144.237 308.815 151.646 306.974 158.394 303.828C168.206 299.254 181.976 289.078 180.976 276.773C183.101 275.336 185.261 273.975 187.46 272.67C206.503 266.56 225.454 260.193 244.301 253.492C255.753 249.415 267.165 245.231 278.552 240.938C284.232 238.792 289.912 236.616 295.579 234.416C298.144 233.424 300.814 232.504 303.419 231.414C308.837 230.811 313.601 227.863 316.624 223.377C317.724 222.131 318.509 220.679 318.823 219.004C318.928 218.717 319.046 218.435 319.124 218.143C319.281 217.66 319.216 217.162 318.967 216.775Z" fill="#4D403D"/>
<path d="M180.757 213.383L180.784 213.356C182.369 211.6 183.795 213.439 180.757 213.383ZM179.468 187.059C169.675 187.101 165.459 193.989 157.981 198.549C152.206 202.068 142.77 202.298 136.213 203.661C130.649 204.817 125.084 205.972 119.52 207.128C108.394 207.536 97.1884 206.983 86.2783 205.471C84.548 205.23 82.7707 204.985 80.9606 204.716C75.9912 200.108 69.4393 197.44 62.8993 195.807C57.5228 194.464 49.335 194.05 45.3942 190.788C32.6256 180.218 14.9202 196.99 26.8852 209.297C30.3522 212.863 34.225 215.818 38.3804 218.291C39.8017 219.501 41.4678 220.497 43.3014 221.212C44.3851 221.636 45.4819 222.011 46.5708 222.412C53.4341 225.349 60.7725 227.337 68.1607 228.805C69.0834 229.016 69.9956 229.252 70.9236 229.447C71.7952 229.63 72.6394 229.739 73.456 229.782C75.5868 230.143 77.7135 230.477 79.822 230.783C86.1395 231.701 92.4283 232.33 98.704 232.702C99.9892 236.92 103.202 240.591 107.644 241.507C124.114 244.906 141.283 244.359 157.258 238.831C171.829 233.788 192.433 223.989 195.6 207.209C197.59 196.609 190.483 187.013 179.468 187.059Z" fill="#FB923C"/>
<path d="M138.122 34.9104C136.859 35.0073 135.608 35.1394 134.364 35.2951C132.153 35.5215 129.941 35.748 127.728 35.9744C125.572 34.0008 123.208 32.1842 120.678 30.7785C119.127 29.9147 117.442 29.2315 115.794 28.585C115.187 28.3481 114.532 28.0065 113.973 27.7068C109.062 22.8446 100.323 21.7713 95.3519 27.4764C93.4476 29.6607 91.4124 31.7039 89.2228 33.5467C83.0335 34.0898 76.8456 34.6316 70.6564 35.1747C69.9064 35.2402 69.2022 35.3606 68.5204 35.5046C64.7615 35.7101 60.983 36.1118 57.1574 36.7505C42.1782 39.2503 46.403 62.1031 60.6362 62.4591C65.1358 62.5717 69.6342 62.607 74.1299 62.5848C74.677 63.0193 75.2685 63.4015 75.9138 63.7104C86.4718 68.765 96.9225 69.4991 108.39 67.6668C117.698 66.18 126.628 62.4552 135.977 61.3061C136.693 61.2328 137.407 61.1596 138.122 61.0863C145.153 60.3664 151.21 55.5867 151.21 47.9983C151.21 41.3379 145.208 34.362 138.122 34.9104Z" fill="#FB923C"/>
<path d="M98.1528 47.4564C93.2737 48.6657 88.3185 49.366 83.3608 49.5702C87.3919 44.7433 86.7348 35.5857 79.2446 34.5203C78.4319 34.4051 77.6205 34.2978 76.809 34.1944V34.1931H76.8025C67.4643 33.0113 58.3314 32.7953 50.3897 35.998C47.0078 36.5974 43.6534 37.3474 40.3264 38.2321C38.6669 38.4467 36.9955 38.7674 35.3071 39.2072C33.8805 39.5789 32.7118 40.1796 31.7681 40.9321C24.8027 44.4803 24.2689 55.9754 33.0286 58.0564C35.2863 58.593 37.5557 59.055 39.8304 59.4778C40.0594 59.5733 40.2806 59.6832 40.5215 59.7591C42.5632 60.4082 44.6167 60.9069 46.6845 61.2485C64.6883 68.3683 83.9747 69.8446 103.024 65.1251C114.463 62.2916 109.618 44.6163 98.1528 47.4564Z" fill="#FB923C"/>
<path d="M101.289 31.8007L101.611 31.4787C102.164 30.9238 102.164 29.9815 101.611 29.4278C101.054 28.8716 100.116 28.8716 99.5598 29.4278L99.2379 29.7498C98.6829 30.3034 98.6829 31.247 99.2379 31.8007C99.7928 32.3569 100.732 32.3556 101.289 31.8007Z" fill="#115E59"/>
<path d="M86.0255 40.8223C86.5804 41.376 87.5228 41.376 88.0764 40.8223C88.6326 40.2674 88.6326 39.3277 88.0764 38.7715L87.7544 38.4495C87.2008 37.8959 86.2585 37.8959 85.7035 38.4495C85.1486 39.0057 85.1486 39.9441 85.7035 40.5004L86.0255 40.8223Z" fill="#115E59"/>
<path d="M65.0639 45.03C65.2785 45.2447 65.4945 45.458 65.7091 45.6727C66.2653 46.225 67.205 46.2276 67.76 45.6727C68.3149 45.1191 68.3175 44.1767 67.76 43.6218C67.544 43.4085 67.3294 43.1938 67.1135 42.9804C66.5586 42.4268 65.6188 42.4242 65.0639 42.9804C64.509 43.5341 64.5064 44.4764 65.0639 45.03Z" fill="#115E59"/>
<path d="M71.9076 36.5752H72.1524C71.9914 37.3892 72.4442 38.3473 73.5187 38.3473C75.385 38.3473 75.3876 35.447 73.5187 35.447C73.3826 35.447 73.2609 35.4666 73.1445 35.4954C73.0986 35.0531 72.8028 34.642 72.2296 34.642H71.9076C70.6643 34.642 70.6616 36.5752 71.9076 36.5752Z" fill="#115E59"/>
<path d="M105.096 25.1363C105.881 25.101 106.546 24.4989 106.546 23.6862V23.3642C106.546 22.6051 105.879 21.8787 105.096 21.9141C104.311 21.9494 103.646 22.5515 103.646 23.3642V23.6862C103.646 24.4453 104.313 25.1717 105.096 25.1363Z" fill="#115E59"/>
<path d="M114.441 33.5139H114.763C115.522 33.5139 116.248 32.8477 116.213 32.0638L116.192 31.9092C116.329 31.9982 116.489 32.0638 116.696 32.0638H117.018C118.262 32.0638 118.264 30.1306 117.018 30.1306H116.696C116.099 30.1306 115.797 30.5756 115.772 31.0376C115.517 30.7784 115.166 30.6149 114.763 30.6149H114.441C113.682 30.6149 112.955 31.2811 112.991 32.0638C113.026 32.8503 113.628 33.5139 114.441 33.5139Z" fill="#115E59"/>
<path d="M134.579 36.5751C134.614 37.3604 135.216 38.0253 136.028 38.0253H136.351C137.109 38.0253 137.835 37.3578 137.801 36.5751C137.766 35.7898 137.164 35.125 136.351 35.125H136.028C135.27 35.125 134.544 35.7925 134.579 36.5751Z" fill="#115E59"/>
<path d="M107.512 37.2191C107.547 38.0044 108.149 38.6693 108.962 38.6693H109.284C110.043 38.6693 110.769 38.0031 110.734 37.2191C110.699 36.4338 110.097 35.7689 109.284 35.7689H108.962C108.204 35.7689 107.478 36.4364 107.512 37.2191Z" fill="#115E59"/>
<path d="M46.2918 41.0853C46.3258 41.8719 46.9278 42.5355 47.7405 42.5355H48.3858C49.1436 42.5355 49.87 41.8693 49.836 41.0853C49.8007 40.3 49.1986 39.6364 48.3858 39.6364H47.7405C46.9827 39.6364 46.2564 40.3026 46.2918 41.0853Z" fill="#115E59"/>
<path d="M82.5403 36.0922H82.8623C83.6214 36.0922 84.3478 35.4247 84.3124 34.642C84.2993 34.3253 84.1894 34.0309 84.014 33.7887C84.2731 33.2168 84.0048 32.387 83.1855 32.387H82.8623C82.2471 32.387 81.9369 32.8608 81.9304 33.3399C81.4383 33.5768 81.0653 34.0779 81.0902 34.642C81.1255 35.4273 81.7276 36.0922 82.5403 36.0922Z" fill="#115E59"/>
<path d="M126.041 35.4471C126.336 35.4471 126.577 35.3633 126.779 35.2403L127.007 35.286H127.974C129.217 35.286 129.22 33.353 127.974 33.353C127.974 32.4657 126.997 32.2222 126.433 32.6005C126.313 32.569 126.183 32.5481 126.041 32.5481C124.174 32.5481 124.17 35.4471 126.041 35.4471Z" fill="#115E59"/>
<path d="M143.072 38.206C143.391 38.0934 143.712 37.9796 144.033 37.8657C144.246 37.7898 144.417 37.6484 144.544 37.4769C144.862 37.2675 145.043 36.9272 145.114 36.5621C146.288 36.4901 146.273 34.6421 145.052 34.6421H144.729C144.474 34.6421 144.285 34.735 144.133 34.8646C144.017 34.8358 143.9 34.8031 143.762 34.8031C142.747 34.8031 142.288 35.6604 142.377 36.4431C141.996 36.6629 141.757 37.0738 141.884 37.5319C142.015 38.007 142.577 38.3827 143.072 38.206Z" fill="#115E59"/>
<path d="M105.901 31.42V31.7419C105.901 32.4997 106.568 33.2273 107.351 33.1919C108.137 33.1566 108.801 32.5547 108.801 31.7419V31.42C108.801 30.6622 108.134 29.9345 107.351 29.9698C106.566 30.0051 105.901 30.6072 105.901 31.42Z" fill="#115E59"/>
<path d="M93.818 40.2803H94.1399C94.899 40.2803 95.6254 39.6128 95.5901 38.8301C95.5547 38.0448 94.9527 37.38 94.1399 37.38H93.818C93.0602 37.38 92.3325 38.0475 92.3678 38.8301C92.4032 39.6154 93.0052 40.2803 93.818 40.2803Z" fill="#115E59"/>
<path d="M152.785 41.5696C154.392 41.5696 154.613 39.4232 153.451 38.8264C154.669 38.8002 154.667 36.8972 153.428 36.8972C152.385 36.8972 152.227 38.2465 152.936 38.685L152.785 38.6693C150.918 38.6693 150.916 41.5696 152.785 41.5696Z" fill="#115E59"/>
<path d="M64.8191 38.83V38.1861C64.8191 36.9415 62.8846 36.9402 62.8846 38.1861V38.83C62.8846 40.0747 64.8191 40.0773 64.8191 38.83Z" fill="#115E59"/>
<path d="M60.6167 43.3992L60.6598 43.3652C61.0707 43.0446 60.9961 42.3365 60.6598 41.9988C60.2527 41.5918 59.7045 41.6755 59.2922 41.9988C58.7307 42.4372 58.5278 43.2461 58.7529 43.9123C59.1482 45.0836 61.0159 44.5811 60.6167 43.3992Z" fill="#115E59"/>
<path d="M77.1284 42.7291C76.3876 43.0288 75.8902 43.7317 76.1572 44.5523C76.5067 45.6321 78.0838 45.2917 78.0524 44.3141C78.2867 44.0824 78.4162 43.7696 78.3167 43.4044C78.1911 42.9451 77.6152 42.5328 77.1284 42.7291Z" fill="#115E59"/>
<path d="M87.3736 45.5966C86.1302 45.5966 86.1276 47.531 87.3736 47.531C88.6182 47.531 88.6195 45.5966 87.3736 45.5966Z" fill="#115E59"/>
<path d="M106.772 42.0878C106.449 42.1952 106.127 42.3025 105.805 42.4098C104.631 42.8011 105.134 44.6688 106.32 44.2735C106.642 44.1662 106.964 44.0589 107.287 43.9516C108.461 43.5603 107.957 41.6926 106.772 42.0878Z" fill="#115E59"/>
<path d="M122.496 39.1521C123.74 39.1521 123.742 37.2191 122.496 37.2191C121.252 37.2191 121.249 39.1521 122.496 39.1521Z" fill="#115E59"/>
<path d="M123.784 45.5966H124.107C125.351 45.5966 125.353 43.6636 124.107 43.6636H123.784C122.541 43.6636 122.538 45.5966 123.784 45.5966Z" fill="#115E59"/>
<path d="M116.052 43.9857H115.729C114.485 43.9857 114.484 45.9187 115.729 45.9187H116.052C117.295 45.9187 117.297 43.9857 116.052 43.9857Z" fill="#115E59"/>
<path d="M97.6856 48.4969H97.0404C95.7971 48.4969 95.7945 50.4301 97.0404 50.4301H97.6856C98.929 50.4301 98.9303 48.4969 97.6856 48.4969Z" fill="#115E59"/>
<path d="M97.3623 42.0524C96.119 42.0524 96.1164 43.9856 97.3623 43.9856C98.607 43.9856 98.6083 42.0524 97.3623 42.0524Z" fill="#115E59"/>
<path d="M63.852 47.5311C62.6073 47.5311 62.606 49.4641 63.852 49.4641C65.0966 49.4641 65.0979 47.5311 63.852 47.5311Z" fill="#115E59"/>
<path d="M52.6133 44.6701L52.9353 44.3481C53.8174 43.466 52.4496 42.0996 51.5688 42.9804L51.2469 43.3024C50.3647 44.1832 51.7325 45.5509 52.6133 44.6701Z" fill="#115E59"/>
<path d="M41.9412 44.6308C43.1845 44.6308 43.1872 42.6978 41.9412 42.6978C40.6965 42.6978 40.6952 44.6308 41.9412 44.6308Z" fill="#115E59"/>
<path d="M53.5414 39.4755H53.8634C55.1067 39.4755 55.1093 37.5411 53.8634 37.5411H53.5414C52.2967 37.5411 52.2941 39.4755 53.5414 39.4755Z" fill="#115E59"/>
<path d="M76.7409 34.964C75.4962 34.964 75.4949 36.8972 76.7409 36.8972C77.9842 36.8972 77.9868 34.964 76.7409 34.964Z" fill="#115E59"/>
<path d="M65.4799 35.2258C65.7809 36.4312 67.646 35.9208 67.3436 34.7115C67.2965 34.5217 67.2494 34.3319 67.2023 34.1435C67.6211 34.8816 69.0071 34.7337 69.0071 33.6749V33.3529C69.0071 32.1096 67.0741 32.107 67.0741 33.3529V33.6317L67.0217 33.4236C66.7193 32.2169 64.8556 32.7273 65.1579 33.9367C65.2652 34.3659 65.3726 34.7952 65.4799 35.2258Z" fill="#115E59"/>
<path d="M69.7194 41.3627C70.7743 41.5316 71.82 41.4766 72.8226 41.084C73.3081 40.8942 73.6458 40.4361 73.4979 39.8943C73.3697 39.4323 72.7963 39.0278 72.3081 39.2202L72.1917 39.2594C72.2296 39.0016 72.1669 38.7281 71.9274 38.4886C71.714 38.2727 71.4994 38.058 71.2847 37.842C70.4065 36.9586 69.0388 38.325 69.9183 39.2085L70.205 39.4977C69.6998 39.427 69.1906 39.6404 69.0441 40.173C68.9184 40.6337 69.2011 41.279 69.7194 41.3627Z" fill="#115E59"/>
<path d="M83.1855 37.2191C81.9408 37.2191 81.9395 39.1521 83.1855 39.1521C84.4288 39.1521 84.4314 37.2191 83.1855 37.2191Z" fill="#115E59"/>
<path d="M89.6286 34.6421H90.2738C91.5184 34.6421 91.5197 32.7091 90.2738 32.7091H89.6286C88.3852 32.7091 88.3839 34.6421 89.6286 34.6421Z" fill="#115E59"/>
<path d="M97.3218 37.9036C97.6437 37.795 97.9658 37.6877 98.289 37.5804C98.6529 37.4587 98.84 37.1904 98.9107 36.8959C99.0717 37.0595 99.2876 37.1485 99.518 37.1695C99.569 37.4469 99.6737 37.7139 99.8818 37.9233L100.204 38.2452C100.757 38.7989 101.701 38.7989 102.255 38.2452C102.811 37.689 102.811 36.7493 102.255 36.1944L101.933 35.8724C101.554 35.4942 100.997 35.3934 100.504 35.5335C100.142 34.7102 98.6686 34.8371 98.6542 35.9169C98.4474 35.7049 98.1515 35.5897 97.7746 35.7153C97.4526 35.824 97.1307 35.9313 96.8087 36.0386C95.6347 36.4312 96.1373 38.2989 97.3218 37.9036Z" fill="#115E59"/>
<path d="M115.407 38.1862C116.651 38.1862 116.653 36.2532 115.407 36.2532H115.085C113.841 36.2532 113.839 38.1862 115.085 38.1862H115.407Z" fill="#115E59"/>
<path d="M121.529 33.0309C122.774 33.0309 122.775 31.0978 121.529 31.0978C120.286 31.0978 120.283 33.0309 121.529 33.0309Z" fill="#115E59"/>
<path d="M130.551 49.4641C131.795 49.4641 131.798 47.5311 130.551 47.5311C129.307 47.5311 129.305 49.4641 130.551 49.4641Z" fill="#115E59"/>
<path d="M143.118 45.2748V45.5968C143.118 46.8414 145.052 46.8427 145.052 45.5968V45.2748C145.052 44.0315 143.118 44.0288 143.118 45.2748Z" fill="#115E59"/>
<path d="M130.874 38.1862H131.196C132.439 38.1862 132.442 36.2532 131.196 36.2532H130.874C129.629 36.2532 129.627 38.1862 130.874 38.1862Z" fill="#115E59"/>
<path d="M134.379 42.6584L134.057 42.9803C133.176 43.8611 134.542 45.2288 135.423 44.348L135.747 44.0261C136.627 43.1439 135.26 41.7762 134.379 42.6584Z" fill="#115E59"/>
<path d="M134.095 33.0309C135.34 33.0309 135.342 31.0978 134.095 31.0978C132.852 31.0978 132.85 33.0309 134.095 33.0309Z" fill="#115E59"/>
<path d="M48.708 50.2691C48.0863 50.2691 48.085 51.2362 48.708 51.2362C49.3296 51.2362 49.3309 50.2691 48.708 50.2691Z" fill="#115E59"/>
<path d="M72.5513 49.3031H72.2293C71.6076 49.3031 71.6063 50.269 72.2293 50.269H72.5513C73.1743 50.269 73.1743 49.3031 72.5513 49.3031Z" fill="#115E59"/>
<path d="M79.64 53.4913H78.996C78.3744 53.4913 78.3731 54.4585 78.996 54.4585H79.64C80.2629 54.4585 80.2643 53.4913 79.64 53.4913Z" fill="#115E59"/>
<path d="M86.7297 49.6252H86.4064C85.7848 49.6252 85.7848 50.5911 86.4064 50.5911H86.7297C87.3514 50.5911 87.3527 49.6252 86.7297 49.6252Z" fill="#115E59"/>
<path d="M93.7986 42.6781L93.4766 43.0001C93.0355 43.4398 93.7201 44.1243 94.1599 43.6832L94.4819 43.3613C94.9229 42.9202 94.2396 42.237 93.7986 42.6781Z" fill="#115E59"/>
<path d="M106.385 49.6252C105.762 49.6252 105.762 50.5911 106.385 50.5911C107.007 50.5911 107.008 49.6252 106.385 49.6252Z" fill="#115E59"/>
<path d="M115.729 47.6907C115.107 47.6907 115.107 48.658 115.729 48.658C116.352 48.658 116.352 47.6907 115.729 47.6907Z" fill="#115E59"/>
<path d="M126.363 48.9813C125.741 48.9813 125.74 49.9471 126.363 49.9471C126.984 49.9471 126.985 48.9813 126.363 48.9813Z" fill="#115E59"/>
<path d="M141.507 44.1465C142.13 44.1465 142.13 43.1806 141.507 43.1806C140.885 43.1806 140.884 44.1465 141.507 44.1465Z" fill="#115E59"/>
<path d="M131.641 40.6023C131.018 40.6023 131.018 41.5696 131.641 41.5696H131.84C132.461 41.5696 132.463 40.6023 131.84 40.6023H131.641Z" fill="#115E59"/>
<path d="M146.34 41.2476C145.718 41.2476 145.717 42.2135 146.34 42.2135C146.961 42.2135 146.963 41.2476 146.34 41.2476Z" fill="#115E59"/>
<path d="M151.495 45.1138C150.873 45.1138 150.872 46.0809 151.495 46.0809C152.117 46.0809 152.118 45.1138 151.495 45.1138Z" fill="#115E59"/>
<path d="M158.262 41.8915H158.584C159.205 41.8915 159.207 40.9243 158.584 40.9243H158.262C157.64 40.9243 157.639 41.8915 158.262 41.8915Z" fill="#115E59"/>
<path d="M147.951 35.4471C148.573 35.4471 148.574 34.4812 147.951 34.4812C147.329 34.4812 147.328 35.4471 147.951 35.4471Z" fill="#115E59"/>
<path d="M159.873 40.6024C160.495 40.6024 160.496 39.6365 159.873 39.6365C159.251 39.6365 159.25 40.6024 159.873 40.6024Z" fill="#115E59"/>
<path d="M76.0957 33.0309H76.7409C77.9843 33.0309 77.9869 31.0978 76.7409 31.0978H76.0957C74.8524 31.0978 74.8498 33.0309 76.0957 33.0309Z" fill="#115E59"/>
<path d="M46.4909 38.5476L46.8129 38.2256C47.6937 37.3448 46.3274 35.9771 45.4466 36.8579L45.1246 37.1812C44.2438 38.0607 45.6101 39.4284 46.4909 38.5476Z" fill="#115E59"/>
<path d="M217.143 163.558C214.198 164.675 211.241 165.633 208.309 166.387C199.697 168.604 190.666 170.822 181.78 171.211L181.503 171.224C185.182 166.199 187.996 160.447 190.836 154.914C191.844 154.749 192.852 154.565 193.86 154.37C199.775 153.733 205.691 152.876 211.345 150.964C218.151 148.656 223.478 144.555 228.909 140.069C233.176 137.193 237.168 133.935 240.832 130.319C248.436 123.737 255.046 116.143 254.967 105.445C254.915 100.025 252.886 95.3949 249.641 91.7473C246.081 86.8027 240.466 84.0333 234.236 83.2257C233.739 83.1236 233.241 83.0295 232.744 82.9509C225.009 81.7495 217.13 83.0792 209.591 84.8422C207.877 85.2427 206.058 85.7177 204.474 86.4454L204.121 71.9479C204.526 71.8484 204.919 71.7503 205.325 71.6744C207.196 70.8917 209.12 70.1954 211.07 69.5803L211.293 69.5136L211.411 69.4808C216.135 68.1537 220.952 67.1446 225.834 66.5046C225.991 66.4837 226.161 66.4641 226.318 66.4431C227.286 66.3424 228.242 66.2534 229.21 66.1853C238.686 65.5165 247.756 66.2664 254.784 73.3535C257.978 76.5758 260.425 80.4276 262.218 84.5752C264.626 90.7396 265.752 97.5832 265.87 103.801C265.307 131.092 241.552 152.795 217.143 163.558ZM175.899 171.904C174.616 172.281 173.525 172.878 172.542 173.911C171.85 174.309 171.164 174.724 170.498 175.179L170.766 175.191C166.086 179.98 161.279 184.719 155.685 188.429C149.142 192.769 141.805 194.023 134.675 196.939C134.3 197.092 133.927 197.252 133.556 197.414C125.987 199.11 118.218 199.881 110.466 200.187C99.9133 200.604 89.1576 200.613 78.6781 199.19C74.7399 198.655 70.8763 197.824 67.1031 196.734C66.45 196.439 65.7957 196.131 65.1373 195.799C58.4337 192.424 51.7301 188.908 45.4073 184.855C38.5623 180.465 32.5836 175.136 27.1704 169.085C25.435 167.146 23.3082 164.969 21.2246 162.633C20.7548 161.955 20.2966 161.268 19.8582 160.566C19.4328 159.861 19.0154 159.15 18.6123 158.434L18.6031 158.417C18.3937 158.044 18.196 157.665 17.9932 157.289C15.1989 151.856 13.4229 145.944 11.5906 140.131C9.4389 133.305 7.41167 126.429 5.92619 119.462C5.81756 118.881 5.69584 118.304 5.59375 117.723C4.40929 110.987 3.86997 104.16 3.56372 97.3227C3.57026 96.9366 3.56775 96.5533 3.58084 96.1672C3.58739 95.963 3.55331 95.7837 3.49572 95.624C3.35175 91.9895 3.25879 88.3537 3.16456 84.727C2.91981 75.2618 1.69488 61.238 8.53202 53.6457C11.2556 50.6224 15.0733 49.103 18.891 47.8845C17.6948 49.6749 16.9736 51.693 16.9449 53.9389L16.7263 53.7976C15.1872 52.7335 13.7357 55.2464 15.2631 56.3013L15.3979 56.3889C15.4634 56.5735 15.5797 56.749 15.8009 56.8759C16.4972 57.2751 17.204 57.6362 17.9186 57.9713C18.0692 58.1074 18.2458 58.2266 18.484 58.2946C18.6489 58.3417 18.8138 58.3849 18.9787 58.4307C20.7168 59.2435 22.5427 59.8468 24.4339 60.2446C26.6156 60.7996 28.8444 61.208 31.1008 61.5679C66.3989 69.8499 103.151 70.8799 138.777 64.709C139.911 64.5532 141.045 64.4015 142.178 64.2326C155.135 62.3009 168.586 60.1216 180.314 54.0214C180.606 53.9206 180.899 53.8264 181.189 53.7256C181.323 53.6785 181.437 53.6156 181.541 53.5463L181.568 53.5712C181.723 53.367 181.91 53.1956 182.107 53.0424C182.329 52.9142 182.565 52.7938 182.787 52.6616C183.259 52.3933 183.324 51.9378 183.18 51.5491C183.272 51.4195 183.376 51.3004 183.481 51.1944C182.526 49.5977 181.454 48.1057 180.294 46.7C180.507 46.6712 180.725 46.6568 180.945 46.6476C182.342 47.073 183.756 47.497 185.143 47.9472C186.622 48.4236 188.166 48.8988 189.698 49.4445C190.993 50.1487 192.198 50.8711 193.205 51.4627C196.556 53.4481 198.545 55.3314 199.317 59.0995C199.802 61.4461 200.09 63.8268 200.22 66.2154C200.233 66.3999 200.22 66.981 200.234 67.71C200.155 67.9233 200.103 68.1602 200.116 68.4311C200.286 75.6308 200.469 82.8305 200.639 90.0315C200.26 90.9751 200.129 92.0889 200.338 93.433C200.351 93.6006 200.417 93.7236 200.495 93.8257C200.325 95.9054 200.155 97.985 199.972 100.065C199.946 100.392 200.063 100.626 200.26 100.779C199.239 109.614 198.035 118.424 196.582 127.2C195.954 131.044 195.391 134.938 194.213 138.644C193.899 139.52 193.585 140.394 193.258 141.263C193.022 141.822 192.787 142.378 192.512 142.925C191.281 145.374 189.946 147.595 189.07 150.041C188.926 150.178 188.795 150.338 188.69 150.546C184.855 157.792 181.387 165.727 175.899 171.904ZM51.8766 193.917C53.7011 194.841 55.5478 195.721 57.4377 196.507C57.829 196.671 58.2255 196.82 58.6194 196.976C58.6561 197.118 58.7098 197.264 58.8027 197.41C59.4401 198.424 60.1285 199.373 60.8549 200.269C60.919 200.623 61.1297 200.949 61.5355 201.161L61.6571 201.223C66.005 206.116 71.7506 209.092 78.4778 210.29C89.4036 212.236 100.942 212.213 111.984 211.544C127.561 210.599 149.619 209.117 157.342 193.304L157.513 193.113C157.704 192.883 157.816 192.64 157.867 192.4C164.555 194.753 178.727 199.295 171.13 207.051C165.998 212.29 156.935 214.536 150.071 216.445C135.528 220.495 120.358 221.543 105.32 221.536C90.0475 221.531 74.2805 221.318 59.2621 218.326C52.6487 217.009 42.7347 215.453 38.2311 209.867C31.7225 201.795 44.6926 195.785 51.8766 193.917ZM196.909 190.771C200.809 193.189 204.539 196.603 205.731 201.207C207.288 207.192 204.382 213.295 200.299 217.543C197.681 220.268 194.658 222.615 191.373 224.667C191.137 224.671 190.889 224.743 190.627 224.921C190.025 225.348 189.41 225.773 188.808 226.198C176.351 233.122 160.691 236.051 147.504 237.349C129.132 239.159 110.445 238.186 92.0736 236.844C71.269 235.326 50.9316 231.428 31.8089 222.861C22.8685 218.855 10.5148 213.811 8.4993 202.986C6.08719 190.022 17.8571 180.987 29.1586 178.71C29.5826 178.625 29.8614 178.405 30.025 178.128C35.4656 183.529 41.6222 188.199 48.2827 191.988C39.5988 195.049 28.673 202.425 35.785 211.41C39.8422 216.536 47.3024 218.432 53.3202 219.959C60.8968 221.881 68.6906 222.849 76.474 223.428C93.1716 224.667 110.228 225.12 126.912 223.513C141.138 222.141 158.011 219.551 170.175 211.48C174.346 208.712 178.129 203.9 175.301 198.817C172.508 193.798 164.859 191.709 159.247 189.811C163.038 187.455 166.655 184.767 170.074 181.716C179.256 183.282 188.926 185.833 196.909 190.771ZM40.4404 37.8433C44.3223 36.3212 48.2865 35.1014 52.315 34.1407C52.226 34.6773 52.5179 35.2859 53.2194 35.2859C54.1015 35.2859 54.3463 34.3214 53.9772 33.756C55.4614 33.4301 56.9561 33.1383 58.4572 32.8818C58.3041 33.1069 58.2125 33.3765 58.2125 33.6749V33.9968C58.2125 34.7559 58.88 35.4823 59.6626 35.447C60.4479 35.4116 61.1128 34.8096 61.1128 33.9968V33.6749C61.1128 33.243 60.8928 32.8255 60.5604 32.5494C62.0001 32.336 63.4464 32.1514 64.8978 31.9969C65.0981 32.6082 65.8963 33.0401 66.4879 32.4433C66.7026 32.2286 66.9159 32.0127 67.1306 31.7981L67.1423 31.7798C68.4066 31.6659 69.671 31.5546 70.9405 31.4447V32.0638C70.9405 33.3085 72.8748 33.3098 72.8748 32.0638V31.4199L72.8448 31.2733C74.8669 31.0848 76.8849 30.853 78.8848 30.5416C78.5916 30.8596 78.3653 31.2418 78.237 31.6777C78.0211 32.4041 78.4961 33.2888 79.2487 33.4603C80.0051 33.633 80.7512 33.2469 81.0065 32.5139L81.0365 32.51C81.6961 32.7076 82.4042 32.5611 82.7876 31.9067C82.8609 31.7811 82.9068 31.6345 82.9369 31.4826C83.3584 31.8412 84.0257 31.8963 84.3425 31.2628C84.4498 31.0482 84.5571 30.8334 84.6644 30.6175C84.9079 30.1293 84.7129 29.6778 84.3804 29.4068C85.4353 29.1189 86.4837 28.7931 87.5163 28.4109C87.7152 28.3363 87.9103 28.2487 88.1092 28.1701L88.0987 28.2159C87.7153 28.352 87.3331 28.4881 86.9496 28.6242C86.2114 28.886 85.7194 29.6124 85.9379 30.4068C86.133 31.1214 86.9798 31.6829 87.7205 31.4199C88.5411 31.1293 89.3604 30.8374 90.181 30.5455C90.0711 31.3386 90.5291 32.2247 91.5631 32.2247C93.4098 32.2247 93.4282 29.3872 91.6155 29.3296C91.6731 29.1058 91.6822 28.8637 91.6128 28.6138C91.4178 27.8992 90.5711 27.3377 89.8303 27.6007L89.664 27.6597L89.5254 27.5968C91.7019 26.6453 93.7841 25.4779 95.6635 24.016L95.6753 24.0042C95.5706 24.5264 95.7212 25.1036 96.1256 25.4557L95.674 25.6768C94.9712 26.0223 94.7788 27.0196 95.1545 27.6609C95.5733 28.3768 96.4332 28.5274 97.1386 28.1806L98.4304 27.5445C99.1332 27.199 99.3269 26.2017 98.9512 25.5603C98.7889 25.2829 98.5508 25.1154 98.2903 25.0041C98.6882 24.1455 98.2759 22.88 97.0404 22.88L96.8101 22.9035C97.3703 22.2753 97.9016 21.5778 98.4264 20.8841L98.5024 20.9443L98.5638 20.9756C98.5141 21.1209 98.4827 21.2715 98.4906 21.4298C98.5259 22.2164 99.128 22.88 99.9408 22.88H99.98C99.9132 23.1588 99.9603 23.4611 100.223 23.7255L100.545 24.0474C101.426 24.9283 102.794 23.5618 101.913 22.681L101.793 22.5606C102.139 22.2923 102.378 21.8827 102.357 21.4298C102.323 20.6446 101.721 19.981 100.908 19.981H100.504C100.428 19.8331 100.316 19.697 100.121 19.5988C99.963 19.519 99.8045 19.4391 99.6449 19.3593C100.094 18.8502 100.558 18.4025 101.056 18.0753C101.612 17.7115 102.111 17.4484 102.565 17.2717C102.455 17.6212 102.594 17.9758 102.841 18.2219V18.5308C102.841 19.7742 104.774 19.7768 104.774 18.5308V18.2089C104.774 18.0178 104.718 17.8659 104.642 17.7351C104.757 17.5427 104.785 17.3398 104.753 17.1461C106.693 17.9052 107.277 21.244 108.634 23.4166C108.512 23.4611 108.392 23.5343 108.279 23.6469L107.957 23.9688C107.076 24.8496 108.443 26.2174 109.323 25.3365L109.647 25.0146L109.808 24.7685C110.382 25.2711 111.021 25.6847 111.695 26.0407C111.306 26.3063 111.035 26.7461 111.056 27.2303L111.107 27.5523H110.895C109.652 27.5523 109.651 29.4867 110.895 29.4867H111.219C111.793 29.4867 112.092 29.0705 112.135 28.6255C112.253 28.6582 112.376 28.6805 112.506 28.6805H114.441C114.686 28.6805 114.924 28.6046 115.138 28.4842C115.113 28.598 115.095 28.7171 115.094 28.8401C115.09 29.9801 116.696 30.0652 116.971 29.115C117.497 28.9593 117.704 28.4096 117.585 27.9359C118.834 28.2068 120.09 28.4554 121.353 28.6727L121.49 28.8808L121.812 29.2027C122.324 29.7145 122.986 29.4619 123.291 28.9934C123.945 29.0941 124.602 29.1857 125.258 29.276C124.703 30.1241 125.083 31.5808 126.408 31.5808H127.007C128.135 31.5808 128.577 30.5234 128.342 29.6857L128.665 29.7262C128.627 30.2354 128.925 30.7746 129.585 30.7746C130.144 30.7746 130.438 30.3819 130.494 29.9526C133.666 30.3348 136.837 30.6999 139.971 31.1632C139.841 31.5454 139.923 31.9787 140.392 32.2195L141.034 32.5454C141.825 32.9485 142.535 32.2142 142.482 31.5559C145.73 32.0977 149.01 32.777 152.243 33.6329L152.19 33.7416C151.964 34.5583 152.751 35.0412 153.385 34.8973C153.86 35.0203 154.418 34.7755 154.585 34.2926C164.636 37.2753 173.984 42.2357 179.975 51.0793C154.868 59.7958 128.623 64.6357 102.242 65.5859C101.166 65.6042 100.09 65.6278 99.0141 65.6343C85.366 65.7129 71.7376 64.7875 58.1798 63.2746C54.9313 62.912 51.6894 62.5128 48.4475 62.0927C38.8986 60.492 29.419 58.3744 20.0637 55.7215L19.9891 55.6848C18.0246 46.162 33.67 40.4976 40.4404 37.8433ZM205.115 91.4319C213.125 88.2227 221.528 86.0122 229.799 85.8538C237.338 85.7085 244.981 88.2974 248.567 95.4277C252.049 102.367 250.936 110.672 247.363 117.321C240.623 129.848 227.038 138.924 214.421 144.759C207.353 148.029 199.919 150.347 192.315 151.737L192.302 151.466C196.294 143.166 199.278 134.358 201.281 125.368C203.754 114.235 204.88 102.825 205.115 91.4319ZM268.212 95.3727C265.948 79.1646 255.255 64.1069 237.927 63.1305C226.815 62.5036 215.167 64.3621 204.67 68.7138C204.526 64.8621 204.238 60.9213 203.034 57.4203C200.181 49.1029 191.085 46.7641 183.559 44.3978C182.486 44.0614 181.405 43.7461 180.329 43.4228L180.142 43.602L180.136 43.6217C179.307 43.2945 178.455 43.0262 177.582 42.8207C177.256 42.7448 176.987 42.8299 176.781 42.9922C171.049 37.655 163.82 33.9877 156.228 31.6607C149.353 29.5535 142.206 28.5156 135.096 27.5655C131.035 27.0236 126.967 26.5288 122.918 25.8953C118.465 25.1978 113.137 24.8955 110.56 20.7937C108.644 17.7455 107.455 11.5026 102.373 12.8493C100.426 13.3637 99.6043 15.0978 98.5521 16.6121C96.0994 20.1419 93.0617 22.7438 89.1562 24.601C81.8623 28.068 73.6105 28.2447 65.7211 29.0051C58.7818 29.6726 51.9368 30.9381 45.2855 33.0545C37.8999 35.4037 30.2749 38.6012 23.8749 43.0249C23.6917 43.1519 23.5255 43.2932 23.3475 43.4228C22.0387 43.8024 20.7299 44.1832 19.4211 44.5628C19.2509 44.6112 19.124 44.6963 19.0206 44.7971C14.9673 46.0692 10.7242 47.5651 7.55694 50.5138C0.584999 57.0081 0.26688 68.5032 0.176573 77.3454C0.105899 84.4351 0.218465 91.6164 0.645132 98.7611C0.642514 105.925 1.57963 112.964 3.05464 119.913C4.7901 129.505 7.38541 138.979 9.63261 148.438C9.71244 148.773 9.88265 149.004 10.0881 149.172C10.999 153.885 13.8705 157.836 16.9566 161.549C17.1176 161.815 17.2629 162.085 17.4279 162.35C20.4734 167.239 24.0176 171.814 27.9689 176.009C19.2497 177.865 10.9506 182.761 7.25454 191.209C3.51662 199.754 5.62637 209.003 12.5617 215.159C13.0996 215.636 13.6559 216.097 14.2226 216.547C14.2749 216.796 14.4097 217.043 14.6557 217.266C18.4552 220.687 22.8108 223.014 27.4322 224.901C37.7547 229.65 48.009 234.876 58.6639 238.819C62.9489 240.404 67.3399 241.515 71.7885 242.338C80.7996 244.648 90.1195 245.743 99.518 246.287C111.048 246.955 122.829 247.593 134.481 247.163L135.607 247.257C135.918 247.284 136.18 247.216 136.389 247.087C140.42 246.896 144.434 246.57 148.414 246.065C165.159 243.934 178.43 237.004 192.093 227.425L192.315 227.239C196.831 224.653 200.993 221.513 204.134 217.566C210.468 209.623 210.769 199 203.139 191.854C195.365 184.564 183.455 181.227 173.008 179.304C173.429 179.3 173.863 179.172 174.262 178.859C175.705 177.731 177.022 176.49 178.25 175.171C199.789 174.441 221.279 167.571 238.503 154.774C244.929 150.563 250.831 145.619 255.386 139.984C260.53 133.631 264.194 126.128 266.171 118.202C268.461 110.917 269.312 103.207 268.212 95.3727Z" fill="#115E59"/>
<path d="M104.129 28.8416H104.452C105.695 28.8416 105.698 26.9084 104.452 26.9084H104.129C102.885 26.9084 102.883 28.8416 104.129 28.8416Z" fill="#115E59"/>
<path d="M139.574 34.9639H139.895C141.139 34.9639 141.141 33.0309 139.895 33.0309H139.574C138.329 33.0309 138.328 34.9639 139.574 34.9639Z" fill="#115E59"/>
<path d="M146.662 34.6421C147.906 34.6421 147.908 32.7091 146.662 32.7091C145.418 32.7091 145.416 34.6421 146.662 34.6421Z" fill="#115E59"/>
<path d="M150.851 35.9313C152.095 35.9313 152.097 33.9968 150.851 33.9968C149.607 33.9968 149.605 35.9313 150.851 35.9313Z" fill="#115E59"/>
<path d="M105.74 37.541V37.219C105.74 35.9757 103.807 35.9731 103.807 37.219V37.541C103.807 38.7856 105.74 38.7883 105.74 37.541Z" fill="#115E59"/>
<path d="M96.0747 33.6749C97.3181 33.6749 97.3207 31.7418 96.0747 31.7418C94.8301 31.7418 94.8275 33.6749 96.0747 33.6749Z" fill="#115E59"/>
<path d="M90.9189 37.5411C92.1622 37.5411 92.1635 35.6081 90.9189 35.6081C89.6742 35.6081 89.6729 37.5411 90.9189 37.5411Z" fill="#115E59"/>
<path d="M79.6399 42.0524C80.8846 42.0524 80.8872 40.1194 79.6399 40.1194C78.3966 40.1194 78.3939 42.0524 79.6399 42.0524Z" fill="#115E59"/>
<path d="M112.184 41.0852C113.429 41.0852 113.43 39.1521 112.184 39.1521C110.941 39.1521 110.938 41.0852 112.184 41.0852Z" fill="#115E59"/>
<path d="M116.374 34.3201C115.129 34.3201 115.128 36.2532 116.374 36.2532C116.875 36.2532 117.164 35.9365 117.262 35.5622C117.77 35.5988 118.307 35.2991 118.307 34.642V34.3201C118.307 33.0754 116.374 33.0728 116.374 34.3201Z" fill="#115E59"/>
<path d="M125.357 36.8579L125.034 37.1812C124.153 38.0607 125.521 39.4284 126.402 38.5476L126.724 38.2256C127.605 37.3448 126.238 35.9771 125.357 36.8579Z" fill="#115E59"/>
<path d="M87.6956 33.6749H88.0188C89.2622 33.6749 89.2648 31.7418 88.0188 31.7418H87.6956C86.4522 31.7418 86.4509 33.6749 87.6956 33.6749Z" fill="#115E59"/>
<path d="M98.9734 34.6421H99.2968C100.54 34.6421 100.543 32.7091 99.2968 32.7091H98.9734C97.7301 32.7091 97.7274 34.6421 98.9734 34.6421Z" fill="#115E59"/>
<path d="M78.6739 35.6081H78.9958C80.2405 35.6081 80.2418 33.6749 78.9958 33.6749H78.6739C77.4305 33.6749 77.4279 35.6081 78.6739 35.6081Z" fill="#115E59"/>
<path d="M18.2969 83.2532C18.4618 81.3947 15.5616 81.4065 15.398 83.2532C14.203 96.7534 15.5013 110.158 19.2353 123.185C19.7483 124.975 22.5479 124.213 22.0309 122.414C18.3663 109.625 17.1255 96.5021 18.2969 83.2532Z" fill="#115E59"/>
<path d="M29.3469 105.047C29.2867 103.186 26.3865 103.177 26.4467 105.047C26.6731 112.164 27.9452 119.041 30.322 125.758C30.941 127.505 33.7445 126.752 33.1189 124.987C30.8311 118.519 29.5655 111.908 29.3469 105.047Z" fill="#115E59"/>
<path d="M169.296 150.054C167.601 161.167 162.57 171.099 154.546 178.989C153.214 180.299 155.265 182.349 156.597 181.038C164.946 172.832 170.326 162.405 172.093 150.825C172.372 148.999 169.578 148.213 169.296 150.054Z" fill="#115E59"/>
</svg>
